<svg width="27" height="24" xmlns="http://www.w3.org/2000/svg"><g fill-rule="nonzero" fill="none"><path d="M1 3h25v21H1z"/><path d="M26.106 24H.894A.904.904 0 0 1 0 23.087V1.913C0 1.409.4 1 .894 1h25.212c.494 0 .894.409.894.913v21.174c0 .504-.4.913-.894.913zM1.788 22.175h23.424V2.825H1.788v19.35z" fill="#E91049"/><rect fill="#E91049" x="6" y="6" width="4" height="4" rx="2"/><rect fill="#E91049" x="12" y="6" width="4" height="4" rx="2"/><rect fill="#E91049" x="17" y="6" width="4" height="4" rx="2"/><rect fill="#E91049" x="6" y="11" width="4" height="4" rx="2"/><rect fill="#E91049" x="12" y="11" width="4" height="4" rx="2"/><rect fill="#E91049" x="17" y="11" width="4" height="4" rx="2"/><rect fill="#E91049" x="6" y="16" width="4" height="4" rx="2"/><rect fill="#E91049" x="12" y="16" width="4" height="4" rx="2"/><rect fill="#E91049" x="17" y="16" width="4" height="4" rx="2"/><path d="M8 5c-.552 0-1-.4-1-.893V.893C7 .4 7.448 0 8 0s1 .4 1 .893v3.214C9 4.6 8.552 5 8 5zM14 5c-.552 0-1-.4-1-.893V.893C13 .4 13.448 0 14 0s1 .4 1 .893v3.214C15 4.6 14.552 5 14 5zM19 5c-.552 0-1-.4-1-.893V.893C18 .4 18.448 0 19 0s1 .4 1 .893v3.214C20 4.6 19.552 5 19 5z" fill="#E91049"/></g></svg>