<?xml version="1.0" encoding="UTF-8"?>
<svg width="27px" height="24px" viewBox="0 0 27 24" version="1.1" xmlns="http://www.w3.org/2000/svg" xmlns:xlink="http://www.w3.org/1999/xlink">
    <!-- Generator: Sketch 48.2 (47327) - http://www.bohemiancoding.com/sketch -->
    <title>date</title>
    <desc>Created with Sketch.</desc>
    <defs></defs>
    <g id="ACTIE-(DESKTOP)" stroke="none" stroke-width="1" fill="none" fill-rule="evenodd" transform="translate(-530.000000, -390.000000)">
        <g id="date" transform="translate(530.000000, 390.000000)" fill-rule="nonzero">
            <rect id="Rectangle-path" x="1" y="3" width="25" height="21"></rect>
            <path d="M26.1059603,24 L0.894039735,24 C0.400275224,24 6.04687128e-17,23.591371 0,23.0873016 L0,1.91269841 C-6.04687128e-17,1.408629 0.400275224,1 0.894039735,1 L26.1059603,1 C26.5997248,1 27,1.408629 27,1.91269841 L27,23.0873016 C27,23.591371 26.5997248,24 26.1059603,24 Z M1.78807947,22.1746032 L25.2119205,22.1746032 L25.2119205,2.82539683 L1.78807947,2.82539683 L1.78807947,22.1746032 Z" id="Shape" fill="#E91049"></path>
            <rect id="Rectangle-path" fill="#E91049" x="6" y="6" width="4" height="4" rx="2"></rect>
            <rect id="Rectangle-path" fill="#E91049" x="12" y="6" width="4" height="4" rx="2"></rect>
            <rect id="Rectangle-path" fill="#E91049" x="17" y="6" width="4" height="4" rx="2"></rect>
            <rect id="Rectangle-path" fill="#E91049" x="6" y="11" width="4" height="4" rx="2"></rect>
            <rect id="Rectangle-path" fill="#E91049" x="12" y="11" width="4" height="4" rx="2"></rect>
            <rect id="Rectangle-path" fill="#E91049" x="17" y="11" width="4" height="4" rx="2"></rect>
            <rect id="Rectangle-path" fill="#E91049" x="6" y="16" width="4" height="4" rx="2"></rect>
            <rect id="Rectangle-path" fill="#E91049" x="12" y="16" width="4" height="4" rx="2"></rect>
            <rect id="Rectangle-path" fill="#E91049" x="17" y="16" width="4" height="4" rx="2"></rect>
            <path d="M8,5 C7.44771525,5 7,4.60025424 7,4.10714285 L7,0.892857121 C7.00000002,0.399745745 7.44771526,-3.01943645e-17 8,0 C8.55228474,3.01943614e-17 8.99999998,0.399745745 9,0.892857121 L9,4.10714285 C9,4.60025424 8.55228475,5 8,5 Z" id="Shape" fill="#E91049"></path>
            <path d="M14,5 C13.4477153,5 13,4.60025424 13,4.10714286 L13,0.892857143 C13,0.399745759 13.4477153,9.05830917e-17 14,0 C14.5522847,-9.05830917e-17 15,0.399745759 15,0.892857143 L15,4.10714286 C15,4.60025424 14.5522847,5 14,5 Z" id="Shape" fill="#E91049"></path>
            <path d="M19,5 C18.4477153,5 18,4.60025424 18,4.10714286 L18,0.892857143 C18,0.399745759 18.4477153,9.05830917e-17 19,0 C19.5522847,-9.05830917e-17 20,0.399745759 20,0.892857143 L20,4.10714286 C20,4.60025424 19.5522847,5 19,5 Z" id="Shape" fill="#E91049"></path>
        </g>
    </g>
</svg>