<svg xmlns="http://www.w3.org/2000/svg" viewBox="0 0 527.18317 508.17969" height="542.05833" width="562.32873"><path transform="matrix(1 0 -.17485 .9846 -41.86368 -54.96064)" fill="#fd0" stroke="#fd0" stroke-width="1.01974" d="M231.83305 331.1362h350.90851v240.30496H231.83305z"/><path transform="matrix(1 0 -.17485 .9846 -41.86368 -54.96064)" fill="#fd0" stroke="#fd0" stroke-width="1.01974" d="M231.83305 331.1362h350.90851v240.30496H231.83305z"/><path transform="matrix(1 0 -.17365 .9848 -41.86368 -54.96064)" fill="#fd0" stroke="#fd0" stroke-width="1.0752" d="M234.64549 56.34609H578.2003V177.2606H234.64549z"/><path transform="matrix(1 0 -.17365 .9848 -41.86368 -54.96064)" fill="#666" stroke="#666" stroke-width="1.0752" d="M97.08012 229.12294h49.23313v85.22234H97.08012z"/><path transform="matrix(1 0 -.1946 .98088 -41.86368 -54.96064)" fill="#666" stroke="#666" stroke-width="1.13915" d="M150.08815 294.07742h28.9059v21.49133h-28.9059z"/><path transform="matrix(1 0 -.17365 .9848 -41.86368 -54.96064)" fill="#666" stroke="#666" stroke-width="1.0752" d="M172.48657 228.78741h47.58102v60.05827h-47.58102zM233.61496 228.78741h47.58102v60.05827h-47.58102z"/><path d="M189.1062 229.97262c-5.30704 13.42578-11.89594 25.57106-31.24538 24.96948l-33.54765-.32855 3.94678-21.02693 8.55136.32856c4.92743-.3407 4.19666-2.73672 4.93348-4.59966v-.32853z" fill="#666" fill-rule="evenodd" stroke="#666" stroke-width=".99485"/><path transform="matrix(1 0 -.17365 .9848 -41.86368 -54.96064)" fill="#666" stroke="#666" stroke-width="1.0752" d="M296.18723 229.09264h43.25v85.29584h-43.25zM362.59909 228.58492h43.25v85.29584h-43.25z"/><path transform="matrix(1 0 -.1679 .9858 -41.86368 -54.96064)" fill="#666" stroke="#666" stroke-width="1.09197" d="M171.06439 192.59908h9.98639v21.23762h-9.98639z"/><path transform="matrix(1 0 -.16738 .9859 -41.86368 -54.96064)" fill="#666" stroke="#666" stroke-width="1.09351" d="M201.63939 192.51762h9.9851v21.30057h-9.9851z"/><path transform="matrix(1 0 -.17365 .9848 -41.86368 -54.96064)" fill="#666" stroke="#666" stroke-width="1.0752" d="M213.68208 201.19453h2.91859v3.27557h-2.91859zM213.76445 192.70171h5.68356v4.36743h-5.68356zM213.64546 209.67543h5.68356v4.36743h-5.68356z"/><path d="M107.35254 134.84237l12.47438.17834c6.352 7.42914 3.40085 19.20652-4.59373 20.74937l-11.78194.0619 1.38248-4.91598h4.60822c1.91794-.26815 2.81627-2.23586 3.8402-3.99424.19258-1.03347.11293-2.34874 0-3.68698-1.3029-2.2981-2.84386-2.9297-4.45463-3.07246l-1.9969-.15364-1.8433 11.06094z" fill="#666" fill-rule="evenodd" stroke="#666" stroke-width="1.00004"/><path transform="matrix(1 0 -.17365 .9848 -41.86368 -54.96064)" fill="#010198" stroke="#010198" stroke-width="1.0752" d="M235.71576 192.8266h104.96621v21.23542H235.71576zM343.6879 192.8266h62.73843v21.23542H343.6879zM410.10413 192.8266h38.20609v21.23542h-38.20609z"/><path transform="matrix(1 0 -.1771 .9842 -41.86368 -54.96064)" fill="#010198" stroke="#010198" stroke-width="1.06512" d="M453.24146 192.97031h22.53104v21.23086h-22.53104z"/><path transform="matrix(1 0 -.17713 .98419 -41.86368 -54.96064)" fill="#010198" stroke="#010198" stroke-width="1.06521" d="M479.83411 192.97148h14.48686v21.23088h-14.48686z"/><path transform="matrix(1 0 -.17365 .9848 -41.86368 -54.96064)" fill="#010198" stroke="#010198" stroke-width="1.0752" d="M499.03299 192.8266h8.44556v21.23542h-8.44556z"/><path transform="matrix(1 0 -.17722 .98417 -41.86368 -54.96064)" fill="#010198" stroke="#010198" stroke-width="1.06548" d="M513.79419 192.97467h6.03914v21.23093h-6.03914z"/><path transform="matrix(1 0 -.1796 .98374 -41.86368 -54.96064)" fill="#010198" stroke="#010198" stroke-width="1.05936" d="M525.85266 192.93896h4.83575v21.36405h-4.83575z"/><path transform="matrix(1 0 -.1773 .98416 -41.86368 -54.96064)" fill="#010198" stroke="#010198" stroke-width="1.06574" d="M536.17426 192.97786h2.81963v21.23099h-2.81963z"/><path transform="matrix(1 0 -.17365 .9848 -41.86368 -54.96064)" fill="#010198" stroke="#010198" stroke-width="1.0752" d="M545.82788 192.8266h2.81519v21.23542h-2.81519z"/><path transform="matrix(1 0 -.18288 .98314 -41.86368 -54.96064)" fill="#010198" stroke="#010198" stroke-width="1.05264" d="M558.95721 192.85426h1.3325v21.58403h-1.3325z"/><path transform="matrix(1 0 -.1798 .9837 -41.86368 -54.96064)" fill="#010198" stroke="#010198" stroke-width="1.06002" d="M567.91907 192.91266h1.33053v21.39823h-1.33053z"/><path transform="matrix(1 0 -.17859 .98392 -41.86368 -54.96064)" fill="#010198" stroke="#010198" stroke-width="1.06322" d="M579.79944 192.7251h.79801v21.53577h-.79801z"/><path d="M265.5068 253.01502l-14.90424-36.94776 7.84434-44.3373 15.4272 38.73144z" fill="#666" fill-rule="evenodd" stroke="#666" stroke-width=".97313"/><path fill="#666" stroke="#666" stroke-width="1.08765" d="M243.81186 170.74596h14.04937v44.90883h-14.04937z"/><path fill="#666" stroke="#666" stroke-width="1.08219" d="M266.86502 209.16976h14.05483v44.44135h-14.05483z"/><path fill="#666" stroke="#666" stroke-width=".79733" d="M142.6936 224.04324h45.31737v7.48203H142.6936z"/><path transform="matrix(1 0 -.17365 .9848 -41.86368 -54.96064)" fill="#666" stroke="#666" stroke-width="1.0752" d="M211.04503 192.70171h5.68356v4.36743h-5.68356z"/><path transform="matrix(1 0 -.1813 .98343 -41.86368 -54.96064)" fill="#666" stroke="#666" stroke-width=".87752" d="M211.8233 201.2892h4.73959v3.48852h-4.73959z"/><path transform="matrix(1 0 -.15112 .98851 -41.86368 -54.96064)" fill="#666" stroke="#666" stroke-width=".9474" d="M206.8299 209.01669h4.67195v4.12516h-4.67195z"/><path transform="matrix(1 0 -.12902 .99164 -41.86368 -54.96064)" fill="#666" stroke="#666" stroke-width="1.01189" d="M171.79536 207.67184h4.61068v4.76838h-4.61068zM172.91092 191.57552h4.61068v4.76838h-4.61068z"/></svg>