<svg xmlns="http://www.w3.org/2000/svg" id="Layer_1" viewBox="0 0 161 92">
  <style>
    .st0{fill:#fdfdfe}.st1{fill:#114294}.st2{fill:#134495}
  </style>
  <path d="M161.2 26.5v65.7H1c-.7 0-.8-.2-.8-.8V1C.2.3.4.2 1 .2h159.4c.4 0 1-.3.8.5-.5 0-1.1.1-1.6 0-.8-.1-.9.2-.9.9v20.5c0 .3.1.6-.1 1l-.5-.8c-3.8-6.5-7.7-13-11.4-19.6-.9-1.6-1.8-2.3-3.6-2.1-.7.1-.9.3-.9.9v23.2c0 1.7 0 1.6 1.6 1.7.8 0 .9-.2.9-.9V4.2l.5.7 12 20.7c.3.5.6.8 1.3.7l2.7.2zM5.5 38.2c.4.4.4.8.5 1.2l6.2 18.9c.2.7.5.9 1.2.9 1.1-.1 2.1-.1 3.2 0 .7.1 1-.2 1.3-.9l6.2-18.9c.1-.3.1-.8.5-1v20.1c0 .6.1.9.8.8h3.5c.6 0 .7-.2.7-.8V34.3c0-.6-.1-.8-.8-.8H22c-.6 0-.8.2-1 .8l-4.6 14.6-1.3 4.1-.3-.7-5.7-18c-.1-.4-.2-.8-.8-.8H1.2c-.4 0-.6.1-.6.6v24.5c0 .6.2.6.7.6h3.6c.6 0 .7-.2.7-.8v-5.7l-.1-14.5zm140.3 5.9l-.5-.8-5.2-9.2c-.3-.5-.6-.7-1.2-.7h-24.2c-.4 0-.5.1-.5.5v2.8c0 .6.2.8.8.8h5.6c1 0 1.2.3 1.2 1.2v19.6c0 .7.1.9.8.9 1.1-.1 2.1-.1 3.2 0 .9.1 1.2-.1 1.2-1.1V38.8c0-1.3-.2-1.2 1.2-1.2h5.5c.6 0 .8-.2.8-.8v-1.9c3 4.6 5.8 9.2 8.6 13.9.2.3.2.7.2 1.1v8.6c0 .7.2.9.9.8h3.6c.6 0 .8-.2.8-.8v-8.6c0-.5.1-1 .4-1.5a452.1 452.1 0 0 0 8.8-15H153c-.6 0-.9.2-1.2.7-2.1 3.3-4 6.6-6 10zM58 46.2v-1c-.3-4.5-1.9-8.3-6-10.7a13.9 13.9 0 0 0-8-1.5c-4.9.4-8.6 2.7-10.3 7.5a16.3 16.3 0 0 0-.2 10.7 11 11 0 0 0 7.9 7.8c1.7.5 3.5.6 5.2.4 5-.4 8.6-2.8 10.4-7.5.8-1.8 1.1-3.7 1-5.7zm16.2-.5l.6-.2c2.4-.9 3.9-2.8 4-5.1.1-3.2-1.1-5.2-3.7-6.2a9.4 9.4 0 0 0-3.7-.7h-9c-.6 0-.8.2-.8.8v24.3c0 .6.2.8.8.7h8.9a10 10 0 0 0 5.5-1.5c2.5-1.6 3.2-4.1 2.9-6.9-.3-2.4-2.1-4.1-4.8-4.8-.4-.2-.6-.2-.7-.4zM9.4 89l-.3-.8-5.5-19.7C3 66.1 3 66.1.4 66.3l.1.5 6.6 22.9c.2.7.2 1.7.7 2.1.5.4 1.5.1 2.2.2.7.1.9-.2 1.1-.8l4.8-16.4 1.5-5.3c.3.3.4.6.5.9l5.6 19.5c.6 2.1.6 2.1 2.8 2.1.7 0 1-.2 1.2-.9l6.8-23.4c.4-1.4.4-1.4-1.1-1.5-.8 0-1.1.2-1.3 1l-4.7 16.7-1.5 5.1-.3-.8-5.6-19.8c-.2-.7-.2-1.8-.7-2.1-.5-.4-1.5-.1-2.3-.1-.6 0-.8.1-.9.7l-3.8 13L9.4 89zm72.2-75.6c.1-1.6-.2-3.4-.7-5.1A10.6 10.6 0 0 0 71.4.4c-5.4-.3-9.3 2-11.2 6.7a18.2 18.2 0 0 0-1 9.5c.8 6.3 4.8 10.1 11 10.3 5.2.1 9-2.5 10.6-7.5.6-1.9.8-3.9.8-6zm9.8 32.9v12.1c0 .5 0 .8.7.8h14c.5 0 .6-.2.6-.6V56c0-.7-.1-.9-.8-.9h-8.3c-.8 0-.9-.2-.9-1V34.2c0-.6-.1-.9-.8-.8h-3.6c-.7 0-.8.2-.8.9l-.1 12zM50.2 13.2l.4-.1c3.3-1 4.9-3.2 4.7-6.6-.2-3.1-2.1-5.1-5.5-5.6C47.2.5 44.6.8 42 .7c-.8 0-.9.2-.9.9v23.1c0 1.8 0 1.7 1.7 1.8.7 0 .8-.2.8-.9V15.2c0-.8.2-1 1-1l2.5.1c1.2 0 2 .6 2.6 1.5l.8 1.5 3.6 8.4c.1.3.1.7.6.6h2.5l-4.7-10.7a4.5 4.5 0 0 0-2.3-2.4zm90.1 13.2l-.3-.7-9.1-22.9c-.8-2-.8-2-3-2-.6 0-.9.1-1.1.7l-7.7 18.7-2.6 6.4h1.5c.7.1 1.1-.2 1.4-.9l2.1-5.3c.2-.5.4-.7 1-.7h11.6c.5 0 .8.1.9.6l1.7 4.1c.9 2.3.9 2.3 3.4 2.1l.2-.1zM89.2 92l.2-.3-.8-.6-12.2-12.2c-.4-.4-.5-.6 0-1l8.3-8 3.4-3.6H86c-.7-.1-1.2.2-1.7.7L75 76.3l-1.5 1.4v-9.8c0-1.6 0-1.5-1.6-1.6-.9 0-1 .3-1 1v23c0 1.8 0 1.7 1.7 1.8.7 0 .9-.2.8-.8v-11c0-.2-.1-.5.2-.8l1.1 1.1 10.7 11.1c.2.3.5.5.9.5.9-.2 1.9-.2 2.9-.2zM36.3 10V1.6c0-.7-.2-1-.9-.9h-.5c-.9-.1-1.2.1-1.2 1.1 0 5.4.1 10.8 0 16.1-.1 3.9-2.3 6.2-6.2 6.6a6.3 6.3 0 0 1-7-4.5c-.3-1-.4-2.1-.4-3.2V2.3c0-1.7 0-1.6-1.6-1.7-.8 0-.9.2-.9 1v16.2c0 1.2.2 2.4.6 3.6 1.3 3.4 4.3 5.3 8.5 5.4 5.9.1 9.6-3.5 9.6-9.4V10zm48.9 3.5v11.2c0 1.7 0 1.7 1.7 1.8.7 0 .8-.2.8-.9v-9.5c0-.6.1-.8.8-.8 1.7 0 3.3.1 5-.2 3.9-.7 6.1-3.4 6.1-7.4 0-3.8-2.1-6.3-6.1-6.9-2.5-.4-5-.1-7.6-.2-.7 0-.8.2-.8.9.2 4 .1 8 .1 12zm-84.5.1v12.1c0 .3-.2.8.5.8h12c.4 0 .6-.2.6-.6v-.7c.1-.7-.1-1-.9-1H4c-.6 0-.8-.2-.8-.8V15c0-.6.2-.8.8-.8h8c.6 0 .9-.1.8-.8v-.6c.2-.6 0-.8-.8-.8H4c-.6 0-.8-.2-.7-.8V3.6c0-.7.2-.8.8-.8h8.6c.6 0 .8-.2.8-.8v-.7c.1-.7-.2-.8-.8-.8h-11C1 .5.8.7.9 1.3.7 5.5.7 9.6.7 13.6zm52.8 65.5v12.2c0 .5.1.7.7.7H66c.5 0 .7-.1.7-.7v-.7c.1-.8-.2-.9-.9-.9h-8.9c-.6 0-.8-.1-.8-.8v-8.4c0-.6.1-.8.8-.8h7.6c1.4 0 1.2.2 1.3-1.3.1-.9-.3-1-1-1H57c-.6 0-.8-.1-.8-.7v-7.6c0-.6.2-.8.8-.8h8.6c.6 0 .9-.1.8-.8v-.6c.1-.7-.2-.9-.9-.9H54.6c-.7 0-.9.1-.9.8-.2 4.3-.2 8.3-.2 12.3zm-17 0v12.2c0 .6.1.8.7.8h11.6c.6 0 .9-.2.8-.8v-.4c.1-.8-.1-1.1-1.1-1.1h-8.8c-.6 0-.8-.1-.8-.8v-8.5c0-.6.2-.8.8-.8h8.1c.5 0 .8-.1.7-.7v-.6c.1-.7-.1-.9-.9-.9h-8c-.6 0-.7-.1-.7-.7v-7.6c0-.7.2-.9.9-.8h8.6c.6 0 .8-.1.7-.7V67c.1-.7-.2-.8-.9-.8h-11c-.6 0-.8.1-.8.8l.1 12.1zm65.7-65.5v12.1c0 .3-.2.8.5.8h12c.4 0 .6-.1.6-.6v-.7c.1-.7-.1-1-.9-1h-8.9c-.6 0-.7-.2-.7-.7V15c0-.6.2-.8.8-.8h8c.6 0 .9-.1.8-.7v-.6c.1-.7-.1-.9-.8-.9h-8c-.6 0-.8-.2-.7-.8V3.6c0-.7.2-.8.8-.8h8.6c.6 0 .8-.2.8-.8v-.6c.1-.8-.2-.9-.9-.9h-10.9c-.7 0-.9.2-.9.8-.2 4.2-.2 8.3-.2 12.3zM113 46.3v-12c0-.7-.2-.9-.9-.8h-3.6c-.6 0-.8.1-.8.7v24.2c0 .7.2.9.9.8h3.5c.7 0 .9-.1.9-.8V46.3zm-31-.1v12.2c0 .6.2.8.8.7h3.6c.7 0 .9-.1.9-.8v-24c0-.7-.2-.9-.9-.8h-3.5c-.7 0-.9.1-.9.8v11.9z" class="st0"/>
  <path d="M161.2 26.5h-2.6c-.6 0-1-.2-1.3-.7l-12-20.7-.5-.7v21.3c0 .8-.2 1-.9.9-1.6-.1-1.6 0-1.6-1.7V1.7c0-.7.2-.8.9-.9 1.8-.3 2.8.5 3.6 2.1 3.7 6.6 7.6 13.1 11.4 19.6l.5.8c.2-.4.1-.7.1-1V1.8c0-.7.2-1 .9-.9.5.1 1.1 0 1.6 0l-.1 25.6zM5.5 38.2v20.1c0 .6-.1.8-.7.8H1.2c-.5 0-.7-.1-.7-.6V34c0-.5.2-.6.6-.6h7.1c.7 0 .7.4.8.8l5.7 18 .3.7 1.3-4.1 4.6-14.6c.2-.5.4-.8 1-.8h6.8c.7 0 .8.2.8.8v24.2c0 .6-.1.8-.7.8h-3.5c-.7 0-.8-.2-.8-.8V38.3c-.4.3-.4.7-.5 1l-6.2 18.9c-.2.7-.5 1-1.3.9-1.1-.1-2.1-.1-3.2 0-.7 0-1-.2-1.2-.9-1.9-6.2-4-12.5-6.1-18.8-.1-.4-.1-.8-.5-1.2zm140.3 5.9l5.7-10c.3-.5.6-.7 1.2-.7h4.8l-3.3 5.7-5.5 9.3c-.3.5-.4.9-.4 1.5v8.6c0 .6-.2.8-.8.8h-3.6c-.7 0-.9-.1-.9-.8v-8.6c0-.4 0-.7-.2-1.1l-8.6-13.9v1.9c0 .6-.2.8-.8.8h-5.5c-1.4 0-1.2-.1-1.2 1.2v19.3c0 1-.3 1.2-1.2 1.1-1.1-.1-2.1-.1-3.2 0-.7 0-.8-.2-.8-.9V38.7c0-.9-.2-1.2-1.2-1.2h-5.6c-.6 0-.8-.2-.8-.8v-2.8c0-.4.1-.6.5-.5h24.2c.6 0 .9.2 1.2.7l5.2 9.2c.5.2.6.5.8.8zM58 46.2c0 2-.2 3.9-1 5.7-1.8 4.8-5.5 7.1-10.4 7.5a18 18 0 0 1-5.2-.4 10.5 10.5 0 0 1-7.9-7.8c-1.1-3.6-1.1-7.2.2-10.7 1.7-4.8 5.4-7.1 10.3-7.5 2.8-.2 5.5.1 8 1.5 4.1 2.3 5.7 6.1 6 10.7v1zm-5.4.1c0-1.4-.2-2.7-.6-4-1-3.2-3.4-5-6.3-5.1-3.3-.1-5.7 1.5-6.8 4.8-1.1 3.1-1 6.3.3 9.3 1.2 2.8 3.4 4.1 6.4 4.1a6.5 6.5 0 0 0 6.1-4.1c.7-1.6.9-3.3.9-5zm21.6-.6l.6.3c2.7.6 4.5 2.4 4.8 4.8.3 2.8-.4 5.3-2.9 6.9a9.7 9.7 0 0 1-5.5 1.5h-8.9c-.6 0-.8-.1-.8-.7V34.2c0-.6.2-.8.8-.8h9c1.3 0 2.5.3 3.7.7 2.6 1 3.8 3.1 3.7 6.2a5.5 5.5 0 0 1-4 5.1c-.2.2-.3.3-.5.3zm-7.6 5.6v3.2c0 .4.1.5.5.5 1.2 0 2.5.1 3.7-.1 1.9-.3 3.2-1.2 3.5-2.6.5-2.3-.7-4.1-3.2-4.5-1.3-.2-2.6-.2-3.9-.2-.5 0-.6.2-.6.7v3zm0-10.6v2.6c0 .2 0 .5.3.5 1.6 0 3.2.1 4.8-.5 1.3-.5 1.9-1.5 1.8-2.8-.1-1.4-.8-2.3-2.2-2.7-1.4-.4-2.9-.2-4.3-.3-.4 0-.4.2-.4.5v2.7z" class="st1"/>
  <path d="M9.4 89l2.6-9 3.8-13c.2-.6.4-.7.9-.7.8.1 1.8-.2 2.3.1.5.3.5 1.4.7 2.1l5.6 19.8.3.8 1.5-5.1 4.7-16.7c.2-.8.5-1 1.3-1 1.5.1 1.5 0 1.1 1.5l-6.8 23.4c-.2.6-.4.8-1.1.8-2.2 0-2.2 0-2.8-2.1l-5.6-19.5c-.1-.3-.2-.6-.5-.9l-1.5 5.3-4.8 16.4c-.2.6-.4.9-1.1.8-.8-.1-1.7.2-2.2-.2-.5-.4-.5-1.4-.7-2.1L.5 66.8l-.1-.5c2.6-.2 2.6-.2 3.2 2.2l5.5 19.7.3.8zm72.2-75.6c0 2.2-.2 4.1-.9 6a10.4 10.4 0 0 1-10.6 7.5c-6.1-.1-10.2-4-11-10.3-.4-3.2-.3-6.4 1-9.5C62 2.4 65.9.1 71.3.4c4.5.2 8.1 3.3 9.5 7.9.6 1.7.9 3.4.8 5.1zm-2.6.2c-.1-2.2-.4-4.3-1.4-6.3a7.9 7.9 0 0 0-7.2-4.7A7.5 7.5 0 0 0 63.2 7c-2.3 4.5-2.3 9.2.2 13.6 3.1 5.5 10.6 5.4 13.9 0 1.2-2.2 1.7-4.5 1.7-7z" class="st2"/>
  <path d="M91.4 46.3v-12c0-.7.1-.9.8-.9h3.6c.7 0 .8.2.8.8v19.9c0 .7.1 1 .9 1h8.3c.7 0 .9.2.8.9v2.6c0 .4-.1.6-.6.6H92c-.6 0-.7-.3-.7-.8l.1-12.1zM50.2 13.2c1.2.5 1.9 1.4 2.4 2.6l4.7 10.7h-2.5c-.5 0-.5-.3-.6-.6l-3.6-8.4-.8-1.5a3.1 3.1 0 0 0-2.6-1.5l-2.5-.1c-.8-.1-1 .1-1 1v10.4c0 .7-.1.9-.8.9-1.7 0-1.7 0-1.7-1.8V1.8c0-.8.2-1 .9-.9 2.6.1 5.2-.2 7.8.2 3.4.5 5.3 2.5 5.5 5.6.2 3.4-1.4 5.6-4.7 6.6l-.5-.1zm-6.6-5.7v2.4c0 2.2 0 2.1 2.2 2.2 1.7 0 3.3-.2 4.8-1a4 4 0 0 0 2.1-4.6c-.3-1.9-1.3-2.9-3.4-3.3-1.7-.3-3.5-.2-5.2-.2-.5 0-.5.3-.5.7v3.8z" class="st1"/>
  <path d="M140.3 26.4l-.1.1c-2.5.2-2.5.2-3.4-2.1l-1.7-4.1c-.2-.5-.4-.6-.9-.6h-11.6c-.6 0-.8.2-1 .7l-2.1 5.3c-.3.7-.6 1-1.4.9h-1.5l2.6-6.4 7.7-18.7c.2-.6.5-.7 1.1-.7 2.2 0 2.2 0 3 2l9.1 22.9.2.7zM128.6 3.5c-.2-.1-.2 0-.3.1l-5.2 13.1c-.2.6.1.6.5.6H134l-.2-.6-5.2-13.2z" class="st2"/>
  <path d="M89.2 92h-2.9c-.4 0-.7-.3-.9-.5L74.7 80.4l-1.1-1.1c-.3.3-.2.6-.2.8v11c0 .7-.2.9-.8.8-1.7 0-1.7 0-1.7-1.8v-23c0-.7.1-1.1 1-1 1.6.1 1.6 0 1.6 1.6v9.8l1.5-1.4 9.3-9.3c.5-.5 1-.8 1.7-.7h2.1l-3.4 3.6-8.3 8c-.4.4-.4.6 0 1l12.2 12.2.8.6-.2.5zM36.3 10v7.5c0 5.9-3.7 9.5-9.6 9.4-4.2-.1-7.2-2-8.5-5.4-.4-1.1-.6-2.3-.6-3.6V1.7c0-.7.1-1 .9-1 1.6.1 1.6 0 1.6 1.7v14.5c0 1.1.1 2.1.4 3.2.9 3 3.7 4.9 7 4.5 3.9-.4 6.1-2.7 6.2-6.6.1-5.4.1-10.8 0-16.1 0-1 .3-1.2 1.2-1.1h.5c.7-.1.9.1.9.9V10zm48.9 3.5v-12c0-.6.1-.9.8-.9 2.5.1 5.1-.2 7.6.2 3.9.6 6 3.1 6.1 6.9 0 4-2.2 6.7-6.1 7.4-1.7.3-3.3.2-5 .2-.7 0-.8.2-.8.8v9.5c0 .6-.1.9-.8.9-1.7-.1-1.7 0-1.7-1.8l-.1-11.2zM87.8 8v4.5c0 .5.1.7.7.7 1.3-.1 2.7 0 4-.2 2.8-.3 4.3-1.6 4.6-4.1.3-3-.9-5.6-4.5-5.9l-4-.1c-.6 0-.8.2-.7.8L87.8 8zM.7 13.6v-12c0-.7.2-.9.8-.8h11c.6 0 .9.1.8.8v.7c.2.5 0 .7-.6.7H4.1c-.6 0-.8.1-.8.8v7.6c0 .6.1.8.7.8h8c.7 0 .9.2.8.9v.6c.1.6-.2.8-.8.8H4c-.6 0-.8.2-.8.8v8.4c0 .6.2.8.8.8h8.9c.8 0 1 .2.9 1v.7c0 .4-.1.6-.6.6h-12c-.7 0-.5-.4-.5-.8V13.6zm52.8 65.5v-12c0-.7.2-.8.9-.8h10.9c.7 0 1 .2.9.9v.6c.1.6-.2.8-.8.8h-8.6c-.6 0-.8.2-.8.8V77c0 .6.2.8.8.7h7.8c.8 0 1.1.1 1 1-.1 1.5.2 1.3-1.3 1.3h-7.6c-.7 0-.8.2-.8.8v8.4c0 .7.2.8.8.8h8.9c.7 0 1 .1.9.9v.7c.1.5-.2.7-.7.7H54c-.6 0-.7-.2-.7-.7.2-4.4.2-8.4.2-12.5zm-17 0v-12c0-.6.2-.8.8-.8h11c.7 0 1 .1.9.8v.7c.1.6-.2.7-.7.7h-8.6c-.7 0-.9.1-.9.8v7.6c0 .6.1.7.7.7h8c.7 0 1 .2.9.9v.6c.1.6-.2.7-.7.7h-8.1c-.6 0-.8.2-.8.8v8.5c0 .6.2.8.8.8h8.8c.9 0 1.2.3 1.1 1.1v.4c.1.6-.2.8-.8.8H37.3c-.6 0-.7-.2-.7-.8l-.1-12.3zm65.7-65.5v-12c0-.7.2-.9.9-.8H114c.7 0 1 .1.9.9v.6c.1.6-.2.8-.8.8h-8.6c-.6 0-.8.1-.8.8v7.6c0 .6.1.8.7.8h8c.7 0 .9.2.8.9v.6c.1.6-.2.8-.8.7h-8c-.6 0-.8.2-.8.8v8.5c0 .6.1.7.7.7h8.9c.8 0 1 .2.9 1v.7c0 .4-.1.6-.6.6h-12c-.7 0-.5-.5-.5-.8.2-4.3.2-8.4.2-12.4zM113 46.3v12c0 .7-.2.9-.9.8h-3.5c-.7 0-.9-.1-.9-.8V34.1c0-.6.2-.8.8-.7h3.6c.7 0 .9.1.9.8v12.1zm-31-.1v-12c0-.7.2-.9.9-.8h3.5c.7 0 .9.1.9.8v24c0 .7-.2.9-.9.8h-3.6c-.6 0-.8-.1-.8-.7V46.2z" class="st1"/>
  <path d="M52.6 46.3c0 1.7-.3 3.4-1 5-1.2 2.6-3.2 4.1-6.1 4.1-3 .1-5.2-1.3-6.4-4.1a12.5 12.5 0 0 1-.3-9.3c1.2-3.3 3.5-4.9 6.8-4.8 3 .1 5.3 1.9 6.3 5.1.6 1.3.7 2.6.7 4zm14 5v-3c0-.5.1-.7.6-.7 1.3 0 2.6 0 3.9.2 2.4.4 3.7 2.1 3.2 4.5-.3 1.4-1.5 2.4-3.5 2.6-1.2.2-2.5.1-3.7.1-.4 0-.5-.2-.5-.5v-3.2zm0-10.6v-2.6c0-.3 0-.5.4-.5 1.4.1 2.9-.2 4.3.3 1.4.4 2.1 1.3 2.2 2.7.1 1.3-.5 2.3-1.8 2.8-1.5.6-3.2.5-4.8.5-.4 0-.3-.3-.3-.5v-2.7zM79 13.6c-.1 2.5-.5 4.8-1.8 7a7.9 7.9 0 0 1-13.8 0A13.7 13.7 0 0 1 63.2 7c1.5-2.9 4-4.4 7.2-4.4 3.3 0 5.7 1.7 7.2 4.7 1 2 1.4 4.1 1.4 6.3zM43.6 7.5V3.6c0-.3 0-.7.5-.7 1.7 0 3.5-.1 5.2.2 2.1.3 3.1 1.3 3.4 3.3.3 2-.5 3.7-2.1 4.6-1.5.8-3.1 1-4.8 1-2.2 0-2.2 0-2.2-2.2V7.5zm85-4l5.2 13.2.2.6h-10.4c-.4 0-.8.1-.5-.6l5.2-13.1.3-.1zM87.8 8V3.7c0-.6.1-.8.7-.8l4 .1c3.6.2 4.8 2.9 4.5 5.9-.3 2.4-1.8 3.7-4.6 4.1l-4 .2c-.5 0-.7-.2-.7-.7l.1-4.5z" class="st0"/>
</svg>
