<svg width="26" height="26" xmlns="http://www.w3.org/2000/svg"><g fill="#E91049" fill-rule="nonzero"><path d="M13.481 24.96c-1.702 0-3.253-1.365-4.371-3.846-1.042-2.314-1.617-5.378-1.617-8.622 0-3.243.575-6.308 1.617-8.621C10.228 1.39 11.78.024 13.48.024c1.7 0 3.253 1.366 4.371 3.847 1.043 2.313 1.617 5.375 1.617 8.621 0 3.247-.574 6.308-1.617 8.622-1.118 2.48-2.67 3.847-4.371 3.847zm0-23.667c-1.132 0-2.29 1.125-3.172 3.085-.972 2.158-1.505 5.039-1.505 8.114 0 3.076.535 5.957 1.505 8.114.884 1.96 2.04 3.086 3.172 3.086 1.132 0 2.29-1.125 3.172-3.086.972-2.157 1.505-5.039 1.505-8.114 0-3.074-.535-5.956-1.505-8.114-.884-1.96-2.04-3.085-3.172-3.085z"/><path d="M13.448 24.96a.645.645 0 0 1-.654-.634V1.42c0-.35.293-.634.654-.634.362 0 .655.284.655.634v22.906c0 .168-.07.33-.192.449a.665.665 0 0 1-.463.186z"/><path d="M25.294 13.476H1.668a.645.645 0 0 1-.654-.635c0-.35.293-.634.654-.634h23.626c.361 0 .654.284.654.634 0 .35-.293.635-.654.635zM24.34 9.098H2.622c-.332 0-.602-.284-.602-.635 0-.35.27-.634.602-.634H24.34c.332 0 .602.284.602.634 0 .35-.27.635-.602.635zM21.46 4.72H5.502c-.244 0-.442-.285-.442-.635 0-.35.198-.634.442-.634h15.956c.244 0 .442.284.442.634 0 .35-.198.635-.442.635zM21.78 22.232H5.182c-.254 0-.46-.284-.46-.634 0-.35.206-.635.46-.635h16.596c.254 0 .46.284.46.635 0 .35-.206.634-.46.634zM24.66 17.854H2.302a.627.627 0 0 1-.62-.634c0-.35.278-.635.62-.635H24.66c.342 0 .62.284.62.635 0 .35-.278.634-.62.634z"/><path d="M13 26C5.832 26 0 20.168 0 13S5.832 0 13 0s13 5.832 13 13-5.832 13-13 13zm0-24.066C6.897 1.934 1.934 6.897 1.934 13c0 6.103 4.963 11.066 11.066 11.066 6.103 0 11.066-4.963 11.066-11.066 0-6.103-4.964-11.066-11.066-11.066z"/></g></svg>