<?xml version="1.0" encoding="UTF-8"?>
<svg width="26px" height="26px" viewBox="0 0 26 26" version="1.1" xmlns="http://www.w3.org/2000/svg" xmlns:xlink="http://www.w3.org/1999/xlink">
    <!-- Generator: Sketch 48.2 (47327) - http://www.bohemiancoding.com/sketch -->
    <title>link</title>
    <desc>Created with Sketch.</desc>
    <defs></defs>
    <g id="ACTIE-(DESKTOP)" stroke="none" stroke-width="1" fill="none" fill-rule="evenodd" transform="translate(-1103.000000, -389.000000)">
        <g id="link" transform="translate(1103.000000, 389.000000)" fill="#E91049" fill-rule="nonzero">
            <g id="Group" transform="translate(1.000000, 0.000000)">
                <path d="M12.4810209,24.9606599 C10.7794503,24.9606599 9.22774869,23.5945431 8.10994764,21.1135787 C7.06806283,18.8001269 6.49280105,15.7360406 6.49280105,12.4923858 C6.49280105,9.24873096 7.06806283,6.18401015 8.10994764,3.87055838 C9.22774869,1.38959391 10.7801047,0.0241116751 12.4810209,0.0241116751 C14.1819372,0.0241116751 15.7342932,1.38959391 16.8520942,3.87055838 C17.895288,6.18401015 18.4692408,9.24555838 18.4692408,12.4923858 C18.4692408,15.7392132 17.895288,18.8001269 16.8520942,21.1135787 C15.7342932,23.5945431 14.1819372,24.9606599 12.4810209,24.9606599 Z M12.4810209,1.29314721 C11.348822,1.29314721 10.190445,2.41751269 9.30890052,4.37817259 C8.33704188,6.53553299 7.80366492,9.41687817 7.80366492,12.4923858 C7.80366492,15.5678934 8.33900524,18.4492386 9.30890052,20.6059645 C10.1930628,22.5666244 11.348822,23.6916244 12.4810209,23.6916244 C13.6132199,23.6916244 14.7715969,22.5666244 15.6531414,20.6059645 C16.625,18.4486041 17.158377,15.5672589 17.158377,12.4923858 C17.158377,9.41751269 16.6230366,6.53553299 15.6531414,4.37817259 C14.7689791,2.41751269 13.6125654,1.29314721 12.4810209,1.29314721 Z" id="Shape"></path>
                <path d="M12.4482984,24.9606599 C12.0868555,24.9606599 11.7938482,24.6765766 11.7938482,24.3261421 L11.7938482,1.42005076 C11.7938482,1.06961628 12.0868555,0.785532995 12.4482984,0.785532995 C12.8097413,0.785532995 13.1027487,1.06961628 13.1027487,1.42005076 L13.1027487,24.3261421 C13.1027487,24.4944267 13.0337979,24.6558188 12.9110646,24.7748139 C12.7883314,24.8938091 12.6218694,24.9606599 12.4482984,24.9606599 Z" id="Shape"></path>
                <path d="M24.2938482,13.4758883 L0.668193717,13.4758883 C0.306750818,13.4758883 0.0137434555,13.191805 0.0137434555,12.8413706 C0.0137434555,12.4909361 0.306750818,12.2068528 0.668193717,12.2068528 L24.2938482,12.2068528 C24.6552911,12.2068528 24.9482984,12.4909361 24.9482984,12.8413706 C24.9482984,13.191805 24.6552911,13.4758883 24.2938482,13.4758883 Z" id="Shape"></path>
                <path d="M23.3400485,9.09771574 L1.62199341,9.09771574 C1.2897344,9.09771574 1.02038524,8.81363246 1.02038524,8.46319797 C1.02038524,8.11276348 1.2897344,7.8286802 1.62199341,7.8286802 L23.3400485,7.8286802 C23.6723075,7.8286802 23.9416566,8.11276348 23.9416566,8.46319797 C23.9416566,8.81363246 23.6723075,9.09771574 23.3400485,9.09771574 Z" id="Shape"></path>
                <path d="M20.4591164,4.71954315 L4.50292553,4.71954315 C4.25881581,4.71954315 4.06092578,4.43545987 4.06092578,4.08502538 C4.06092578,3.73459089 4.25881581,3.45050761 4.50292553,3.45050761 L20.4591164,3.45050761 C20.7032261,3.45050761 20.9011161,3.73459089 20.9011161,4.08502538 C20.9011161,4.43545987 20.7032261,4.71954315 20.4591164,4.71954315 Z" id="Shape"></path>
                <path d="M20.7792199,22.2322335 L4.18282196,22.2322335 C3.92891787,22.2322335 3.72308794,21.9481502 3.72308794,21.5977157 C3.72308794,21.2472813 3.92891787,20.963198 4.18282196,20.963198 L20.7792199,20.963198 C21.033124,20.963198 21.2389539,21.2472813 21.2389539,21.5977157 C21.2389539,21.9481502 21.033124,22.2322335 20.7792199,22.2322335 Z" id="Shape"></path>
                <path d="M23.660152,17.8540609 L1.30188985,17.8540609 C0.95983646,17.8540609 0.682547403,17.5699776 0.682547403,17.2195431 C0.682547403,16.8691087 0.95983646,16.5850254 1.30188985,16.5850254 L23.660152,16.5850254 C24.0022054,16.5850254 24.2794945,16.8691087 24.2794945,17.2195431 C24.2794945,17.5699776 24.0022054,17.8540609 23.660152,17.8540609 Z" id="Shape"></path>
            </g>
            <path d="M13,26 C5.83192027,26 0,20.1680797 0,13 C0,5.83192027 5.83192027,0 13,0 C20.1680797,0 26,5.83192027 26,13 C26,20.1680797 20.1680797,26 13,26 Z M13,1.93366057 C6.89672269,1.93366057 1.93366057,6.89672269 1.93366057,13 C1.93366057,19.1032773 6.89672269,24.0663394 13,24.0663394 C19.1032773,24.0663394 24.0663394,19.1032773 24.0663394,13 C24.0663394,6.89672269 19.1019882,1.93366057 13,1.93366057 Z" id="Shape"></path>
        </g>
    </g>
</svg>