<svg width="17" height="30" xmlns="http://www.w3.org/2000/svg"><path d="M8.5 30l-.931-1.884c-.019-.038-1.898-3.846-3.752-8.106C1.248 14.108 0 10.327 0 8.46 0 3.788 3.806 0 8.5 0S17 3.788 17 8.461c0 1.87-1.248 5.646-3.817 11.549-1.854 4.26-3.735 8.068-3.752 8.106L8.5 30zm0-27.935c-3.547.005-6.42 2.866-6.425 6.396 0 2.76 4.035 11.804 6.425 16.822 2.39-5.018 6.425-14.061 6.425-16.822-.004-3.53-2.878-6.391-6.425-6.396zm0 9.007a3.607 3.607 0 0 1-3.335-2.215 3.578 3.578 0 0 1 .78-3.914 3.62 3.62 0 0 1 3.932-.779 3.59 3.59 0 0 1 2.227 3.318 3.603 3.603 0 0 1-3.604 3.59zm0-5.115c-.62-.001-1.18.37-1.417.94a1.52 1.52 0 0 0 .33 1.662 1.537 1.537 0 0 0 1.67.332c.573-.236.946-.792.946-1.41A1.53 1.53 0 0 0 8.5 5.958z" fill="#E91049" fill-rule="nonzero"/></svg>