<?xml version="1.0" encoding="UTF-8"?>
<svg width="17px" height="30px" viewBox="0 0 17 30" version="1.1" xmlns="http://www.w3.org/2000/svg" xmlns:xlink="http://www.w3.org/1999/xlink">
    <!-- Generator: Sketch 48.2 (47327) - http://www.bohemiancoding.com/sketch -->
    <title>Location</title>
    <desc>Created with Sketch.</desc>
    <defs></defs>
    <g id="ACTIE-(DESKTOP)" stroke="none" stroke-width="1" fill="none" fill-rule="evenodd" transform="translate(-255.000000, -388.000000)">
        <g id="Location" transform="translate(255.000000, 388.000000)" fill="#E91049" fill-rule="nonzero">
            <path d="M8.5,30 L7.5690048,28.1162647 C7.55032956,28.0783972 5.67104728,24.270305 3.81666531,20.0098685 C1.24847425,14.1080485 0,10.3274963 0,8.46097345 C6.99523125e-08,3.78810682 3.80557968,7.51454274e-16 8.5,0 C13.1944203,-7.51454259e-16 16.9999999,3.78810682 17,8.46097345 C17,10.3302503 15.7515258,14.1066715 13.1833347,20.0098685 C11.3289527,24.270305 9.44828709,28.0783972 9.4309952,28.1162647 L8.5,30 Z M8.5,2.06549916 C4.95332314,2.06967243 2.07921897,4.9305806 2.07502645,8.46097345 C2.07502645,11.2218575 6.10956953,20.2653019 8.5,25.2830881 C10.8904305,20.2653019 14.9249736,11.2218575 14.9249736,8.46097345 C14.920781,4.9305806 12.0466769,2.06967243 8.5,2.06549916 Z M8.5,11.0717645 C7.04075504,11.0728786 5.72458733,10.1987072 5.16544737,8.85702351 C4.60630742,7.51533981 4.91435802,5.97048489 5.94590336,4.9430846 C6.97744869,3.91568431 8.52925173,3.60815899 9.87744557,4.16395946 C11.2256394,4.71975993 12.1046003,6.02938133 12.1043209,7.48192679 C12.1016567,9.46263387 10.4898413,11.0679726 8.5,11.0717645 Z M8.5,5.95689981 C7.88008855,5.95578547 7.32059488,6.32663902 7.08258894,6.89641343 C6.84458299,7.46618785 6.97497585,8.12258033 7.41292382,8.55930621 C7.8508718,8.99603208 8.51005515,9.12701248 9.08288692,8.89112955 C9.65571869,8.65524663 10.0292935,8.09899302 10.0292945,7.48192679 C10.0285355,6.64106528 9.34473725,5.95917515 8.5,5.95689981 Z" id="Shape"></path>
        </g>
    </g>
</svg>