<?xml version="1.0" encoding="UTF-8"?>
<svg width="130px" height="77px" viewBox="0 0 130 77" version="1.1" xmlns="http://www.w3.org/2000/svg" xmlns:xlink="http://www.w3.org/1999/xlink">
    <!-- Generator: Sketch 48.2 (47327) - http://www.bohemiancoding.com/sketch -->
    <title>netwerk-duurzame-mobiliteit</title>
    <desc>Created with Sketch.</desc>
    <defs>
        <linearGradient x1="0%" y1="50.0018207%" x2="100%" y2="50.0018207%" id="linearGradient-1">
            <stop stop-color="#D5D10E" offset="36%"></stop>
            <stop stop-color="#E2DE73" offset="56%"></stop>
            <stop stop-color="#EEECB5" offset="76%"></stop>
            <stop stop-color="#FFFFFF" offset="94%"></stop>
        </linearGradient>
        <linearGradient x1="0%" y1="50%" x2="100%" y2="50%" id="linearGradient-2">
            <stop stop-color="#00AEEF" offset="46%"></stop>
            <stop stop-color="#45C4F3" offset="57%"></stop>
            <stop stop-color="#94DDF8" offset="70%"></stop>
            <stop stop-color="#CEEFFC" offset="81%"></stop>
            <stop stop-color="#F1FBFE" offset="90%"></stop>
            <stop stop-color="#FFFFFF" offset="94%"></stop>
        </linearGradient>
        <linearGradient x1="0%" y1="50%" x2="100.198675%" y2="50%" id="linearGradient-3">
            <stop stop-color="#006838" offset="0%"></stop>
            <stop stop-color="#006838" offset="100%"></stop>
        </linearGradient>
        <linearGradient x1="0%" y1="50%" x2="100%" y2="50%" id="linearGradient-4">
            <stop stop-color="#006838" offset="10%"></stop>
            <stop stop-color="#30845D" offset="23%"></stop>
            <stop stop-color="#88B8A2" offset="48%"></stop>
            <stop stop-color="#C8DED4" offset="69%"></stop>
            <stop stop-color="#F0F6F3" offset="84%"></stop>
            <stop stop-color="#FFFFFF" offset="91%"></stop>
        </linearGradient>
    </defs>
    <g id="HOME-(DESKTOP)" stroke="none" stroke-width="1" fill="none" fill-rule="evenodd" transform="translate(-251.000000, -1845.000000)">
        <g id="netwerk-duurzame-mobiliteit" transform="translate(251.000000, 1845.000000)" fill-rule="nonzero">
            <path d="M56.022082,59.4142206 C44.966877,59.4142206 38.3201893,59.4142206 38.1845426,45.0875819 L38.1845426,8.8975417 C38.1167192,8.08275655 38.3201893,5.77419864 39.5410095,4.48412216 C40.2404422,3.79368734 41.2077473,3.44606351 42.1861199,3.5335395 L42.1861199,0.00280387052 C40.228814,-0.0524190858 38.3368072,0.710144973 36.9637224,2.10766549 C34.5899054,4.61991969 34.6577287,8.42225036 34.6577287,9.10123798 L34.6577287,45.0875819 C34.7255521,57.5809541 32.8943218,65.2535142 28.9605678,69.2595411 C24.6198738,73.6050619 17.4984227,73.5371631 8.47791798,73.4692644 L0,73.4692644 L0,77 L11.5977918,77 C19.7365931,77 26.6545741,76.5247087 31.4700315,71.7038966 C34.5899054,68.5805535 36.5567823,63.8955389 37.5063091,57.1735615 C41.3044164,62.9449563 48.5615142,62.9449563 56.022082,62.9449563 L129,62.9449563 L129,59.4142206 L56.022082,59.4142206 Z" id="Shape" fill="url(#linearGradient-1)"></path>
            <path d="M52.8621778,66.4582043 C45.0583903,66.4582043 39.3582325,64.755418 35.9652814,61.2817337 C33.2509206,58.5572755 31.9615992,54.6749226 31.9615992,49.5665635 L31.9615992,19.3250774 C31.9615992,12.8544892 36.0331405,12.3095975 40.986849,12.3095975 L42.7511836,12.3095975 C46.1441347,12.2414861 53.2014729,12.1733746 53.2014729,4 L49.6728038,4 C49.6728038,7.9504644 47.5013151,8.6996904 42.6833246,8.76780186 L40.91899,8.76780186 C37.1867438,8.76780186 28.365071,8.83591331 28.365071,19.3250774 L28.365071,48.6811146 C28.365071,66.3900929 21.5791689,66.3900929 10.4502893,66.4582043 L0,66.4582043 L0,70 L10.3824303,70 C19.3398211,70 27.4150447,69.9318885 30.4687007,59.8513932 C31.1982358,61.315102 32.16092,62.6494685 33.3187796,63.8018576 C37.3903209,67.8885449 43.904787,70 52.7264598,70 L129,70 L129,66.4582043 L52.8621778,66.4582043 Z" id="Shape" fill="url(#linearGradient-2)"></path>
            <path d="M11.3598234,62.2765748 C14.8498896,62.2765748 19.9139073,62.2765748 22.9933775,59.1525591 C23.8543713,62.695534 25.6767363,65.9368072 28.2626932,68.5246063 L28.7417219,69 L29.1523179,68.5925197 C29.8580199,67.8980241 30.4782446,67.122927 31,66.2834646 C30.9315673,66.2155512 30.794702,66.1476378 30.7262693,66.011811 C27.3046358,62.6161417 25.593819,57.9301181 25.593819,51.5462598 L25.593819,12.1564961 C25.593819,10.1870079 24.2935982,5.90846457 18.4768212,5.90846457 L18.0662252,5.90846457 C17.3134658,5.90846457 14.9183223,5.7726378 13.3443709,4.21062992 C12.3863135,3.25984252 11.9072848,1.83366142 11.9072848,0 L8.34878587,0 C8.35579885,1.77782857 8.80225798,3.52679413 9.64900662,5.09350394 C7.83790288,4.74480769 6.14384114,3.9509045 4.7218543,2.78444882 C3.95147418,2.08616772 3.50576699,1.10322317 3.49006623,0.0679133858 L0,0.0679133858 C0.040978897,2.06914603 0.877297036,3.9731993 2.32671082,5.36515748 C6.70640177,9.5757874 16.4238411,9.50787402 18.6136865,9.50787402 C21.7615894,9.50787402 22.1037528,11.613189 22.1037528,12.2244094 L22.1037528,19.5590551 C20.1192053,17.25 17.1081678,15.5521654 12.6600442,15.5521654 L10.196468,15.5521654 L10.196468,19.0836614 L12.7284768,19.0836614 C22.0353201,19.0836614 22.1721854,29.2027559 22.1721854,29.3385827 L22.1721854,51.4104331 C22.1721854,58.3375984 18.1346578,58.8809055 11.4282561,58.8809055 L0,58.8809055 L0,62.4124016 L9.58057395,62.4124016 C10.1661325,62.2972741 10.7634114,62.2516782 11.3598234,62.2765748 Z" id="Shape" fill="url(#linearGradient-3)"></path>
            <path d="M62.7650728,73.4067797 C53.8004158,73.4745763 41.9154539,73.6101695 34.2411642,69 C33.6096913,69.9744292 32.8816077,70.8829596 32.0679141,71.7118644 L32,71.779661 C39.3347193,76.3898305 49.7934858,77 58.6223146,77 L130,77 L130,73.4745763 L62.7650728,73.4745763 L62.7650728,73.4067797 Z" id="Shape" fill="url(#linearGradient-4)"></path>
            <path d="M49.8709677,26 L49.8709677,21.6107578 C49.8709677,21.038248 49.5483871,20.7201869 48.9032258,20.7201869 C48.6398389,20.720535 48.3782965,20.7635147 48.1290323,20.8474113 L48.1290323,26 L46,26 L46,19.511555 C46.922632,19.1492252 47.9104705,18.97607 48.9032258,19.0026574 C51.0322581,19.0026574 52,19.829616 52,21.2926968 L52,25.9363878 L49.8709677,25.9363878 L49.8709677,26 Z" id="Shape" fill="#231F20"></path>
            <path d="M61,23.427398 L56.2626263,23.9986752 C56.4881581,24.8110201 57.2737267,25.3297649 58.1010101,25.2126391 C58.8360619,25.2071644 59.5606776,25.0364074 60.2222222,24.7127716 L60.8585859,26.4266031 C59.9201409,26.8280282 58.9077401,27.0227826 57.8888889,26.9978803 C55.2727273,26.9978803 54,25.2840488 54,22.9989401 C54,20.7138315 55.3434343,19 57.6060606,19 C59.8686869,19 61,20.4996025 61,22.5704823 L61,23.427398 Z M57.6060606,20.7852411 C56.8282828,20.7852411 56.1919192,21.3565183 56.1212121,22.6418919 L58.8080808,22.2848437 C58.8080808,21.2851086 58.3131313,20.7852411 57.6060606,20.7852411 Z" id="Shape" fill="#231F20"></path>
            <path d="M63.75,26.9935295 C62.375,26.9935295 61.8125,26.1369413 61.8125,24.4237648 L61.8125,20.9974118 L61,20.9974118 L61,19.2842353 L61.8125,19.2842353 L61.8125,17.6424412 L63.8125,17 L63.8125,19.2842353 L65,19.2842353 L65,20.9974118 L63.8125,20.9974118 L63.8125,24.2810001 C63.7921373,24.476527 63.8514074,24.6719208 63.9733152,24.8111538 C64.0952229,24.9503868 64.2663032,25.0180802 64.4375,24.9948236 C64.6113636,24.9900833 64.7821378,24.9413223 64.9375,24.8520589 L64.9375,26.7793825 C64.5603949,26.9501493 64.1548271,27.0232871 63.75,26.9935295 Z" id="Shape" fill="#231F20"></path>
            <path d="M75.9503106,26 L73.6273292,26 L72.7391304,22.4672897 C72.6435345,22.1016588 72.575041,21.7300168 72.5341615,21.3551402 C72.4658385,21.682243 72.3975155,22.0747664 72.3291925,22.4672897 L71.4409938,26 L69.0496894,26 L67,19 L69.2546584,19 L70.0745342,22.9252336 C70.1428571,23.3831776 70.2111801,23.9719626 70.2111801,24.1028037 C70.2768004,23.7052543 70.3680724,23.3119781 70.484472,22.9252336 L71.5093168,19 L73.4906832,19 L74.515528,22.9252336 C74.6293385,23.3092444 74.698086,23.7042068 74.7204969,24.1028037 C74.7377497,23.7036795 74.8065974,23.3081414 74.9254658,22.9252336 L75.7453416,19 L78,19 L75.9503106,26 Z" id="Shape" fill="#231F20"></path>
            <path d="M84.9292929,23.3559884 L80.2626263,23.9986752 C80.4881581,24.8110201 81.2737267,25.3297649 82.1010101,25.2126391 C82.8360619,25.2071644 83.5606776,25.0364074 84.2222222,24.7127716 L84.8585859,26.4266031 C83.9201409,26.8280282 82.9077401,27.0227826 81.8888889,26.9978803 C79.2727273,26.9978803 78,25.2840488 78,22.9989401 C78,20.7138315 79.3434343,19 81.6060606,19 C83.8686869,19 85,20.4996025 85,22.5704823 C84.9414569,22.8278981 84.9176721,23.0921306 84.9292929,23.3559884 Z M81.5353535,20.7138315 C80.7575758,20.7138315 80.1212121,21.2851086 80.0505051,22.5704823 L82.7373737,22.213434 C82.7373737,21.213699 82.2424242,20.7138315 81.5353535,20.7138315 Z" id="Shape" fill="#231F20"></path>
            <path d="M90.6721311,20.7829463 C90.4173768,20.7045635 90.1524308,20.6617198 89.8852459,20.6557011 C89.6394352,20.6613073 89.3960472,20.7042429 89.1639344,20.7829463 L89.1639344,26 L87,26 L87,19.5104941 C87.9624897,19.1546168 88.9865828,18.9818132 90.0163934,19.0015133 C90.4098361,19.0015133 90.8032787,19.0651359 91,19.0651359 L90.6721311,20.7829463 Z" id="Shape" fill="#231F20"></path>
            <polygon id="Shape" fill="#231F20" points="96.5049505 27 94.2178218 23.2628205 94.2178218 23.2628205 94.2178218 27 92 27 92 16 94.2178218 16 94.2178218 22.6282051 94.2178218 22.6282051 96.2277228 19.3846154 98.7920792 19.3846154 96.5049505 22.9102564 99 26.9294872 96.5049505 26.9294872"></polygon>
            <path d="M50.0104167,39.9927407 C47.4583333,39.9927407 46,38.6012545 46,36.1661537 C46,33.8702016 47.2395833,32.3395668 49.6458333,32.3395668 C49.9672934,32.3407887 50.2867702,32.387686 50.59375,32.4787154 L50.59375,29 L53,29 L53,39.4361462 C52.0653626,39.8497874 51.039467,40.0407865 50.0104167,39.9927407 Z M50.6666667,34.1484988 C50.4361512,34.0549953 50.1879741,34.007635 49.9375,34.0093502 C48.9166667,34.0093502 48.40625,34.8442419 48.40625,36.0965794 C48.40625,37.4880656 48.9895833,38.1838087 49.9375,38.1838087 C50.2291667,38.1838087 50.5208333,38.1142344 50.6666667,38.1142344 L50.6666667,34.1484988 Z" id="Shape" fill="#231F20"></path>
            <path d="M57.0652174,38.9948831 C55.0434783,38.9948831 54,38.2318049 54,36.3876994 L54,32.0635898 L56.1521739,32.0635898 L56.1521739,36.4512892 C56.1521739,37.0235979 56.4782609,37.2779572 57.0652174,37.2779572 C57.3319604,37.2838204 57.5974519,37.240676 57.8478261,37.1507776 L57.8478261,32 L60,32 L60,38.4225745 C59.0825312,38.8387721 58.0762848,39.0349991 57.0652174,38.9948831 Z" id="Shape" fill="#231F20"></path>
            <path d="M65.0652174,38.9931181 C63.0434783,38.9931181 62,38.2302325 62,36.3865922 L62,32.0635738 L64.1521739,32.0635738 L64.1521739,36.450166 C64.1521739,37.0223303 64.4782609,37.2766255 65.0652174,37.2766255 C65.3319604,37.2824871 65.5974519,37.2393536 65.8478261,37.1494779 L65.8478261,32 L68,32 L68,38.4209539 C67.0848274,38.8438412 66.0768461,39.0403568 65.0652174,38.9931181 Z" id="Shape" fill="#231F20"></path>
            <path d="M73.6721311,33.7829463 C73.4173768,33.7045635 73.1524308,33.6617198 72.8852459,33.6557011 C72.6394352,33.6613073 72.3960472,33.7042429 72.1639344,33.7829463 L72.1639344,39 L70,39 L70,32.5104941 C70.9624897,32.1546168 71.9865828,31.9818132 73.0163934,32.0015133 C73.4098361,32.0015133 73.8032787,32.0651359 74,32.0651359 L73.6721311,33.7829463 Z" id="Shape" fill="#231F20"></path>
            <polygon id="Shape" fill="#231F20" points="75 39 77.6823529 33.6509434 75.2823529 33.6509434 75.2823529 32 80.9294118 32 78.2470588 37.3490566 81 37.3490566 81 39"></polygon>
            <path d="M85.2608696,39.9999177 C83.0434783,39.9999177 82,39.1350617 82,37.4774211 C82,35.4594238 83.8913043,34.9549245 85.9782609,34.8107819 L85.9782609,34.5224966 C85.9782609,33.8738546 85.5869565,33.6576406 84.8695652,33.6576406 C84.1915827,33.6631661 83.5232259,33.8355053 82.9130435,34.1621399 L82.3913043,32.5765706 C83.2641338,32.1984867 84.192951,32.0029762 85.1304348,32 C87.0217391,32 88,32.7927846 88,34.8107819 L88,39.423347 C87.1291148,39.8088263 86.1990054,40.0046088 85.2608696,39.9999177 Z M85.9782609,36.2522085 C84.8043478,36.3242798 83.9565217,36.4684225 83.9565217,37.3332784 C83.9565217,37.9819204 84.4130435,38.2702057 85.1956522,38.2702057 C85.4623952,38.2768508 85.7278866,38.227952 85.9782609,38.1260631 L85.9782609,36.2522085 Z" id="Shape" fill="#231F20"></path>
            <path d="M97.8807947,39 L97.8807947,34.550819 C97.8807947,33.9787815 97.5496689,33.6609828 96.8874172,33.6609828 C96.5972813,33.6366016 96.3095817,33.7286417 96.0927152,33.9152218 L96.0927152,39 L93.9072848,39 L93.9072848,34.550819 C93.9058226,34.3092031 93.7958961,34.0799219 93.6056494,33.9216775 C93.4154027,33.7634332 93.1633076,33.6915903 92.9139073,33.7245426 C92.6644704,33.7172919 92.4162441,33.7606075 92.1854305,33.851662 L92.1854305,39 L90,39 L90,32.5169077 C90.8900241,32.1959731 91.830826,32.0239852 92.781457,32.0084299 C93.5873668,31.9522764 94.3872088,32.1780557 95.0331126,32.6440272 C95.7449096,32.2107017 96.5745342,31.9895256 97.4172185,32.0084299 C99.0066225,32.0084299 100,32.8982661 100,34.2965801 L100,38.9364403 L97.8807947,38.9364403 L97.8807947,39 Z" id="Shape" fill="#231F20"></path>
            <path d="M108.929293,36.3559884 L104.262626,36.9986752 C104.488158,37.8110201 105.273727,38.3297649 106.10101,38.2126391 C106.836062,38.2071644 107.560678,38.0364074 108.222222,37.7127716 L108.858586,39.4266031 C107.920141,39.8280282 106.90774,40.0227826 105.888889,39.9978803 C103.272727,39.9978803 102,38.2840488 102,35.9989401 C102,33.7138315 103.343434,32 105.606061,32 C107.868687,32 109,33.4996025 109,35.5704823 C108.947252,35.8287983 108.923533,36.0923005 108.929293,36.3559884 Z M105.535354,33.7138315 C104.757576,33.7138315 104.121212,34.2851086 104.050505,35.5704823 L106.737374,35.213434 C106.737374,34.2851086 106.242424,33.7138315 105.535354,33.7138315 Z" id="Shape" fill="#231F20"></path>
            <path d="M53.8807947,52 L53.8807947,47.5100505 C53.8807947,46.9327712 53.5496689,46.6120606 52.8874172,46.6120606 C52.5972813,46.5874559 52.3095817,46.6803393 52.0927152,46.8686291 L52.0927152,52 L49.9072848,52 L49.9072848,47.5100505 C49.9058226,47.2662206 49.7958961,47.0348384 49.6056494,46.875144 C49.4154027,46.7154497 49.1633076,46.6429485 48.9139073,46.6762027 C48.6644704,46.6688856 48.4162441,46.7125981 48.1854305,46.804487 L48.1854305,52 L46,52 L46,45.5216442 C46.8900241,45.1977689 47.830826,45.024205 48.781457,45.0085072 C49.5873668,44.9518391 50.3872088,45.1796873 51.0331126,45.6499285 C51.7449096,45.2126324 52.5745342,44.9894297 53.4172185,45.0085072 C55.0066225,45.0085072 56,45.9064971 56,47.3176241 L56,52 L53.8807947,52 Z" id="Shape" fill="#231F20"></path>
            <path d="M61.5,53 C59.26,53 58,51.2857143 58,49 C58,46.7142857 59.26,45 61.5,45 C63.74,45 65,46.7142857 65,49 C65,51.2857143 63.74,53 61.5,53 Z M61.5,46.8571429 C60.73,46.8571429 60.31,47.5714286 60.31,49 C60.31,50.4285714 60.73,51.1428571 61.5,51.1428571 C62.27,51.1428571 62.69,50.4285714 62.69,49 C62.69,47.5714286 62.34,46.8571429 61.5,46.8571429 Z" id="Shape" fill="#231F20"></path>
            <path d="M68.8865979,53 C67.8958164,52.9990854 66.9149322,52.8098262 66,52.443038 L66,42 L68.3814433,42 L68.3814433,45.4810127 C68.7715937,45.3322896 69.1888973,45.2612446 69.6082474,45.2721519 C71.628866,45.2721519 73,46.5949367 73,48.8227848 C73,51.6772152 71.556701,53 68.8865979,53 Z M69.1030928,47.0126582 C68.8552009,47.0109419 68.6095823,47.0583334 68.3814433,47.1518987 L68.3814433,51.1202532 C68.5916745,51.1817177 68.8118388,51.2053178 69.0309278,51.1898734 C69.9690722,51.1898734 70.5463918,50.4240506 70.5463918,49.0316456 C70.6185567,47.778481 70.0412371,47.0126582 69.1030928,47.0126582 Z" id="Shape" fill="#231F20"></path>
            <path d="M74.9411828,44.4112751 C74.3977151,44.372631 73.979718,43.8164857 74.0007608,43.1600432 C74.0218036,42.5036007 74.4741539,41.98808 75.0184716,42.0002097 C75.5627892,42.0123394 75.9990572,42.5476624 76,43.2045948 C75.9776957,43.887326 75.5073229,44.4233861 74.9411828,44.4112751 Z M74.000012,53 L74.000012,45.4759931 L75.9411768,45.4759931 L75.9411768,53 L74.000012,53 Z" id="Shape" fill="#231F20"></path>
            <polygon id="Shape" fill="#231F20" points="78 53 78 42 80 42 80 53"></polygon>
            <path d="M82.9714286,44.4112751 C82.4434853,44.372631 82.0374285,43.8164857 82.0578702,43.1600432 C82.078312,42.5036007 82.5177406,41.98808 83.0465095,42.0002097 C83.5752784,42.0123394 83.9990842,42.5476624 84,43.2045948 C83.9783329,43.887326 83.5213965,44.4233861 82.9714286,44.4112751 Z M82,53 L82,45.4759931 L83.8857143,45.4759931 L83.8857143,53 L82,53 Z" id="Shape" fill="#231F20"></path>
            <path d="M88.75,52 C87.375,52 86.8125,51.2285714 86.8125,49.6857143 L86.8125,46.6 L86,46.6 L86,45.0571429 L86.8125,45.0571429 L86.8125,43.5785714 L88.8125,43 L88.8125,45.0571429 L90,45.0571429 L90,46.6 L88.8125,46.6 L88.8125,49.5571429 C88.7921373,49.733231 88.8514074,49.9091993 88.9733152,50.0345901 C89.0952229,50.1599809 89.2663032,50.2209445 89.4375,50.2 C89.6113636,50.195731 89.7821378,50.1518176 89.9375,50.0714286 L89.9375,51.8071429 C89.5501522,51.9179866 89.1517071,51.9826965 88.75,52 Z" id="Shape" fill="#231F20"></path>
            <path d="M97.9231766,49.3559884 L93.2606291,49.9986752 C93.4859619,50.8110201 94.2708371,51.3297649 95.0973903,51.2126391 C95.8317933,51.2071644 96.5557694,51.0364074 97.21673,50.7127716 L97.852532,52.4266031 C96.9149154,52.8280282 95.9034082,53.0227826 94.8854563,52.9978803 C92.2716039,52.9978803 91,51.2840488 91,48.9989401 C91,46.7138315 92.3422485,45 94.6028776,45 C96.8635068,45 97.9938213,46.4996025 97.9938213,48.5704823 C98.0125337,48.8344572 97.9886743,49.0997517 97.9231766,49.3559884 Z M94.532233,46.7138315 C93.7551417,46.7138315 93.1193398,47.2851086 93.0486951,48.5704823 L95.7331922,48.213434 C95.7331922,47.2851086 95.3093242,46.7138315 94.532233,46.7138315 Z" id="Shape" fill="#231F20"></path>
            <path d="M99.9411828,44.4112751 C99.3977151,44.372631 98.979718,43.8164857 99.0007608,43.1600432 C99.0218036,42.5036007 99.4741539,41.98808 100.018472,42.0002097 C100.562789,42.0123394 100.999057,42.5476624 101,43.2045948 C100.977696,43.887326 100.507323,44.4233861 99.9411828,44.4112751 Z M99.000012,53 L99.000012,45.4759931 L100.941177,45.4759931 L100.941177,53 L99.000012,53 Z" id="Shape" fill="#231F20"></path>
            <path d="M105.75,52 C104.375,52 103.8125,51.2285714 103.8125,49.6857143 L103.8125,46.6 L103,46.6 L103,45.0571429 L103.8125,45.0571429 L103.8125,43.5785714 L105.8125,43 L105.8125,45.0571429 L107,45.0571429 L107,46.6 L105.8125,46.6 L105.8125,49.5571429 C105.792137,49.733231 105.851407,49.9091993 105.973315,50.0345901 C106.095223,50.1599809 106.266303,50.2209445 106.4375,50.2 C106.611364,50.195731 106.782138,50.1518176 106.9375,50.0714286 L106.9375,51.8071429 C106.551325,51.9234497 106.152228,51.9882655 105.75,52 Z" id="Shape" fill="#231F20"></path>
        </g>
    </g>
</svg>