<svg width="130" height="77" xmlns="http://www.w3.org/2000/svg"><defs><linearGradient x1="0%" y1="50.002%" y2="50.002%" id="a"><stop stop-color="#D5D10E" offset="36%"/><stop stop-color="#E2DE73" offset="56%"/><stop stop-color="#EEECB5" offset="76%"/><stop stop-color="#FFF" offset="94%"/></linearGradient><linearGradient x1="0%" y1="50%" y2="50%" id="b"><stop stop-color="#00AEEF" offset="46%"/><stop stop-color="#45C4F3" offset="57%"/><stop stop-color="#94DDF8" offset="70%"/><stop stop-color="#CEEFFC" offset="81%"/><stop stop-color="#F1FBFE" offset="90%"/><stop stop-color="#FFF" offset="94%"/></linearGradient><linearGradient x1="0%" y1="50%" x2="100.199%" y2="50%" id="c"><stop stop-color="#006838" offset="0%"/><stop stop-color="#006838" offset="100%"/></linearGradient><linearGradient x1="0%" y1="50%" y2="50%" id="d"><stop stop-color="#006838" offset="10%"/><stop stop-color="#30845D" offset="23%"/><stop stop-color="#88B8A2" offset="48%"/><stop stop-color="#C8DED4" offset="69%"/><stop stop-color="#F0F6F3" offset="84%"/><stop stop-color="#FFF" offset="91%"/></linearGradient></defs><g fill-rule="nonzero" fill="none"><path d="M56.022 59.414c-11.055 0-17.702 0-17.837-14.326V8.898c-.068-.815.135-3.124 1.356-4.414a3.342 3.342 0 0 1 2.645-.95V.003a7.043 7.043 0 0 0-5.222 2.105C34.59 4.62 34.658 8.422 34.658 9.1v35.987c.068 12.493-1.764 20.166-5.697 24.172-4.341 4.345-11.463 4.277-20.483 4.21H0V77h11.598c8.139 0 15.057-.475 19.872-5.296 3.12-3.123 5.087-7.808 6.036-14.53 3.798 5.771 11.056 5.771 18.516 5.771H129v-3.53H56.022z" fill="url(#a)"/><path d="M52.862 66.458c-7.804 0-13.504-1.703-16.897-5.176-2.714-2.725-4.003-6.607-4.003-11.715V19.325c0-6.47 4.071-7.015 9.025-7.015h1.764c3.393-.069 10.45-.137 10.45-8.31h-3.528c0 3.95-2.172 4.7-6.99 4.768H40.92c-3.732 0-12.554.068-12.554 10.557v29.356c0 17.71-6.786 17.71-17.915 17.777H0V70h10.382c8.958 0 17.033-.068 20.087-10.149a15.037 15.037 0 0 0 2.85 3.95C37.39 67.89 43.905 70 52.726 70H129v-3.542H52.862z" fill="url(#b)"/><path d="M11.36 62.277c3.49 0 8.554 0 11.633-3.124a19.913 19.913 0 0 0 5.27 9.372l.479.475.41-.407A12.492 12.492 0 0 0 31 66.283c-.068-.067-.205-.135-.274-.271-3.421-3.396-5.132-8.082-5.132-14.466v-39.39c0-1.969-1.3-6.248-7.117-6.248h-.41c-.754 0-3.149-.135-4.723-1.697-.958-.951-1.437-2.377-1.437-4.211H8.35a10.8 10.8 0 0 0 1.3 5.094 11.068 11.068 0 0 1-4.927-2.31A3.743 3.743 0 0 1 3.49.068H0a7.559 7.559 0 0 0 2.327 5.297c4.38 4.21 14.097 4.143 16.287 4.143 3.148 0 3.49 2.105 3.49 2.716v7.335c-1.985-2.309-4.996-4.007-9.444-4.007h-2.464v3.532h2.532c9.307 0 9.444 10.119 9.444 10.255V51.41c0 6.928-4.037 7.47-10.744 7.47H0v3.532h9.58a7.584 7.584 0 0 1 1.78-.135z" fill="url(#c)"/><path d="M62.765 73.407c-8.965.068-20.85.203-28.524-4.407a17.307 17.307 0 0 1-2.173 2.712L32 71.78C39.335 76.39 49.793 77 58.622 77H130v-3.525H62.765v-.068z" fill="url(#d)"/><path d="M49.871 26v-4.39c0-.572-.323-.89-.968-.89-.263 0-.525.044-.774.127V26H46v-6.488a7.402 7.402 0 0 1 2.903-.51c2.13 0 3.097.828 3.097 2.29v4.644h-2.129V26zM61 23.427L56.263 24a1.669 1.669 0 0 0 1.838 1.214 4.91 4.91 0 0 0 2.121-.5l.637 1.714a7.108 7.108 0 0 1-2.97.57C55.273 26.998 54 25.285 54 23S55.343 19 57.606 19 61 20.5 61 22.57v.857zm-3.394-2.642c-.778 0-1.414.572-1.485 1.857l2.687-.357c0-1-.495-1.5-1.202-1.5zM63.75 26.994c-1.375 0-1.938-.857-1.938-2.57v-3.427H61v-1.713h.813v-1.642l2-.642v2.284H65v1.713h-1.188v3.284a.7.7 0 0 0 .161.53c.122.14.293.207.465.184a1.06 1.06 0 0 0 .5-.143v1.927c-.378.171-.783.244-1.188.215zM75.95 26h-2.323l-.888-3.533a7.693 7.693 0 0 1-.205-1.112c-.068.327-.136.72-.205 1.112L71.441 26H69.05L67 19h2.255l.82 3.925c.068.458.136 1.047.136 1.178.066-.398.157-.791.273-1.178L71.51 19h1.982l1.025 3.925c.113.384.182.78.204 1.178.018-.4.087-.795.205-1.178l.82-3.925H78l-2.05 7zM84.93 23.356l-4.667.643a1.669 1.669 0 0 0 1.838 1.214 4.91 4.91 0 0 0 2.121-.5l.637 1.714a7.108 7.108 0 0 1-2.97.57C79.273 26.998 78 25.285 78 23S79.343 19 81.606 19 85 20.5 85 22.57a2.956 2.956 0 0 0-.07.786zm-3.395-2.642c-.777 0-1.414.571-1.484 1.856l2.686-.357c0-1-.495-1.5-1.202-1.5zM90.672 20.783a2.898 2.898 0 0 0-.787-.127c-.246.005-.489.048-.721.127V26H87v-6.49a8.247 8.247 0 0 1 3.016-.508c.394 0 .787.063.984.063l-.328 1.718zM96.505 27l-2.287-3.737V27H92V16h2.218v6.628l2.01-3.243h2.564l-2.287 3.525L99 26.93h-2.495zM50.01 39.993c-2.552 0-4.01-1.392-4.01-3.827 0-2.296 1.24-3.826 3.646-3.826.321 0 .64.048.948.139V29H53v10.436a6.63 6.63 0 0 1-2.99.557zm.657-5.845a1.907 1.907 0 0 0-.73-.139c-1.02 0-1.53.835-1.53 2.088 0 1.391.583 2.087 1.53 2.087.292 0 .584-.07.73-.07v-3.966zM57.065 38.995c-2.022 0-3.065-.763-3.065-2.607v-4.324h2.152v4.387c0 .573.326.827.913.827.267.006.532-.037.783-.127V32H60v6.423a6.485 6.485 0 0 1-2.935.572zM65.065 38.993c-2.022 0-3.065-.763-3.065-2.606v-4.323h2.152v4.386c0 .572.326.827.913.827.267.005.532-.038.783-.128V32H68v6.421a6.3 6.3 0 0 1-2.935.572zM73.672 33.783a2.898 2.898 0 0 0-.787-.127c-.246.005-.489.048-.721.127V39H70v-6.49a8.247 8.247 0 0 1 3.016-.508c.394 0 .787.063.984.063l-.328 1.718zM75 39l2.682-5.35h-2.4V32h5.647l-2.682 5.35H81V39zM85.26 40c-2.217 0-3.26-.865-3.26-2.523 0-2.018 1.891-2.522 3.978-2.666v-.289c0-.648-.391-.864-1.108-.864a4.212 4.212 0 0 0-1.957.504l-.522-1.585a6.937 6.937 0 0 1 2.74-.577c1.89 0 2.869.793 2.869 2.81v4.613a6.675 6.675 0 0 1-2.74.577zm.718-3.748c-1.174.072-2.021.216-2.021 1.081 0 .649.456.937 1.239.937.266.007.532-.042.782-.144v-1.874zM97.88 39v-4.45c0-.571-.33-.889-.993-.889a1.081 1.081 0 0 0-.794.254V39h-2.186v-4.45a.825.825 0 0 0-.301-.628.9.9 0 0 0-.692-.197 1.84 1.84 0 0 0-.729.127V39H90v-6.483a8.62 8.62 0 0 1 2.781-.509 3.444 3.444 0 0 1 2.252.636 4.4 4.4 0 0 1 2.384-.636c1.59 0 2.583.89 2.583 2.289v4.64h-2.12V39zM108.93 36.356l-4.667.643a1.669 1.669 0 0 0 1.838 1.214 4.91 4.91 0 0 0 2.121-.5l.637 1.714a7.108 7.108 0 0 1-2.97.57c-2.616 0-3.889-1.713-3.889-3.998S103.343 32 105.606 32 109 33.5 109 35.57a3.54 3.54 0 0 0-.07.786zm-3.395-2.642c-.777 0-1.414.571-1.484 1.856l2.686-.357c0-.928-.495-1.5-1.202-1.5zM53.88 52v-4.49c0-.577-.33-.898-.993-.898a1.075 1.075 0 0 0-.794.257V52h-2.186v-4.49a.836.836 0 0 0-.301-.635.894.894 0 0 0-.692-.199 1.826 1.826 0 0 0-.729.128V52H46v-6.478a8.55 8.55 0 0 1 2.781-.513 3.422 3.422 0 0 1 2.252.64 4.37 4.37 0 0 1 2.384-.64c1.59 0 2.583.897 2.583 2.309V52h-2.12zM61.5 53c-2.24 0-3.5-1.714-3.5-4s1.26-4 3.5-4 3.5 1.714 3.5 4-1.26 4-3.5 4zm0-6.143c-.77 0-1.19.714-1.19 2.143 0 1.429.42 2.143 1.19 2.143s1.19-.714 1.19-2.143c0-1.429-.35-2.143-1.19-2.143zM68.887 53A7.78 7.78 0 0 1 66 52.443V42h2.381v3.481c.39-.149.808-.22 1.227-.209 2.02 0 3.392 1.323 3.392 3.55C73 51.678 71.557 53 68.887 53zm.216-5.987a1.869 1.869 0 0 0-.722.139v3.968c.21.062.43.085.65.07.938 0 1.515-.766 1.515-2.158.073-1.254-.505-2.02-1.443-2.02zM74.941 44.411c-.543-.038-.961-.595-.94-1.251.02-.656.473-1.172 1.017-1.16.545.012.981.548.982 1.205-.022.682-.493 1.218-1.059 1.206zM74 53v-7.524h1.941V53H74zM78 53V42h2v11zM82.971 44.411c-.528-.038-.934-.595-.913-1.251.02-.656.46-1.172.989-1.16.528.012.952.548.953 1.205-.022.682-.479 1.218-1.029 1.206zM82 53v-7.524h1.886V53H82zM88.75 52c-1.375 0-1.938-.771-1.938-2.314V46.6H86v-1.543h.813V43.58l2-.579v2.057H90V46.6h-1.188v2.957a.589.589 0 0 0 .161.478.553.553 0 0 0 .465.165c.173-.004.344-.048.5-.129v1.736c-.388.111-.786.176-1.188.193zM97.923 49.356l-4.662.643a1.667 1.667 0 0 0 1.836 1.214 4.902 4.902 0 0 0 2.12-.5l.636 1.714a7.096 7.096 0 0 1-2.968.57C92.272 52.998 91 51.285 91 49S92.342 45 94.603 45c2.26 0 3.39 1.5 3.39 3.57.02.264-.004.53-.07.786zm-3.39-2.642c-.778 0-1.414.571-1.484 1.856l2.684-.357c0-.928-.424-1.5-1.2-1.5zM99.941 44.411c-.543-.038-.961-.595-.94-1.251.02-.656.473-1.172 1.017-1.16.545.012.981.548.982 1.205-.022.682-.493 1.218-1.059 1.206zM99 53v-7.524h1.941V53H99zM105.75 52c-1.375 0-1.938-.771-1.938-2.314V46.6H103v-1.543h.813V43.58l2-.579v2.057H107V46.6h-1.188v2.957a.589.589 0 0 0 .161.478.553.553 0 0 0 .465.165c.173-.004.344-.048.5-.129v1.736a4.58 4.58 0 0 1-1.188.193z" fill="#231F20"/></g></svg>