<?xml version="1.0" encoding="utf-8"?>
<!-- Generator: Adobe Illustrator 15.0.0, SVG Export Plug-In . SVG Version: 6.00 Build 0)  -->
<!DOCTYPE svg PUBLIC "-//W3C//DTD SVG 1.0//EN" "http://www.w3.org/TR/2001/REC-SVG-20010904/DTD/svg10.dtd">
<svg version="1.0" id="Layer_1" xmlns="http://www.w3.org/2000/svg" xmlns:xlink="http://www.w3.org/1999/xlink" x="0px" y="0px"
	 width="119.25px" height="79.25px" viewBox="0 0 119.25 79.25" enable-background="new 0 0 119.25 79.25" xml:space="preserve">
<g>
	<path fill-rule="evenodd" clip-rule="evenodd" fill="#233366" d="M59.878,76.239c-31.432,0-56.913-16.622-56.913-37.159
		c0-20.538,25.481-37.177,56.913-37.177c31.437,0,56.904,16.64,56.904,37.177C116.782,59.617,91.314,76.239,59.878,76.239
		 M106.999,39.08c0-18.363-21.079-33.227-47.121-33.227c-26.014,0-47.127,14.864-47.127,33.227c0,18.35,21.114,33.252,47.127,33.252
		C85.92,72.332,106.999,57.43,106.999,39.08"/>
	<path fill-rule="evenodd" clip-rule="evenodd" fill="#233366" d="M59.194,13.719c14.673,0,23.928,6.899,23.928,13.785
		c0,5.712-3.852,8.64-4.926,9.164c-2.292,1.178-0.4,1.341,0.391,1.625c0.799,0.279,7.841,3.713,7.841,10.5
		c0,9.203-10.674,16.167-27.083,16.167c-11.634,0-20.574-5.55-23.646-7.557c-1.531-1.006-1.25-1.453-0.788-1.917
		c0.466-0.481,1.726-1.982,2.394-2.795c0.675-0.808,0.929-0.412,1.401-0.21c0.467,0.21,1.496,0.464,1.496-0.933V26.744
		c0-1.354-0.516-1.414-1.109-0.998c-0.595,0.396-1.321,1.397-2.258,0.396c-0.916-1.006-1.333-1.405-1.995-2.261
		c-0.672-0.886-0.567-1.35,0.411-2.141C38.371,19.281,46.531,13.719,59.194,13.719 M53.112,22.351v11.485
		c0,1.268,0.585,1.328,1.117,1.328h5.771c1.218,0,7.9-1.122,7.9-7.785c0-6.619-6.48-7.556-7.417-7.556h-4.397
		C54.775,19.823,53.112,20.451,53.112,22.351 M56.69,58.668h5.432c1.135,0,9.209-1.105,9.209-8.833c0-7.725-8.303-9.031-9.793-9.031
		h-7.153c-0.653,0-1.393,0.215-1.393,1.672v13.708C52.992,58.41,55.04,58.668,56.69,58.668"/>
</g>
</svg>
