<svg width="28" height="28" xmlns="http://www.w3.org/2000/svg"><g fill="#E91049" fill-rule="nonzero"><path d="M14 28C6.28 28 0 21.72 0 14S6.28 0 14 0s14 6.28 14 14-6.28 14-14 14zm0-25.918C7.427 2.082 2.082 7.427 2.082 14c0 6.573 5.345 11.918 11.918 11.918 6.573 0 11.918-5.345 11.918-11.918C25.918 7.427 20.57 2.082 14 2.082z"/><path d="M14 15c-.552 0-1-.47-1-1.051V5.051C13 4.471 13.448 4 14 4s1 .47 1 1.051v8.898c0 .58-.448 1.051-1 1.051z"/><path d="M22.949 15h-8.898c-.58 0-1.051-.448-1.051-1s.47-1 1.051-1h8.898c.58 0 1.051.448 1.051 1s-.47 1-1.051 1z"/></g></svg>