<?xml version="1.0" encoding="UTF-8"?>
<svg width="28px" height="28px" viewBox="0 0 28 28" version="1.1" xmlns="http://www.w3.org/2000/svg" xmlns:xlink="http://www.w3.org/1999/xlink">
    <!-- Generator: Sketch 48.2 (47327) - http://www.bohemiancoding.com/sketch -->
    <title>time</title>
    <desc>Created with Sketch.</desc>
    <defs></defs>
    <g id="ACTIE-(DESKTOP)" stroke="none" stroke-width="1" fill="none" fill-rule="evenodd" transform="translate(-807.000000, -388.000000)">
        <g id="time" transform="translate(807.000000, 388.000000)" fill="#E91049" fill-rule="nonzero">
            <path d="M14,28 C6.28052953,28 0,21.7194705 0,14 C0,6.28052953 6.28052953,0 14,0 C21.7194705,0 28,6.28052953 28,14 C28,21.7194705 21.7194705,28 14,28 Z M14,2.08240369 C7.42723982,2.08240369 2.08240369,7.42723982 2.08240369,14 C2.08240369,20.5727602 7.42723982,25.9175963 14,25.9175963 C20.5727602,25.9175963 25.9175963,20.5727602 25.9175963,14 C25.9175963,7.42723982 20.5713719,2.08240369 14,2.08240369 Z" id="Shape"></path>
            <path d="M14,15 C13.4477153,15 13,14.5294712 13,13.9490446 L13,5.05095541 C13,4.47052877 13.4477153,4 14,4 C14.5522847,4 15,4.47052877 15,5.05095541 L15,13.9490446 C15,14.5294712 14.5522847,15 14,15 Z" id="Shape"></path>
            <path d="M22.9490446,15 L14.0509554,15 C13.4705288,15 13,14.5522847 13,14 C13,13.4477153 13.4705288,13 14.0509554,13 L22.9490446,13 C23.5294712,13 24,13.4477153 24,14 C24,14.5522847 23.5294712,15 22.9490446,15 Z" id="Shape"></path>
        </g>
    </g>
</svg>