<svg width="34" height="28" xmlns="http://www.w3.org/2000/svg"><path d="M33.999 3.268c-1.251.554-2.594.93-4.005 1.098A7.004 7.004 0 0 0 33.06.51a14.06 14.06 0 0 1-4.432 1.693A6.955 6.955 0 0 0 23.538 0a6.975 6.975 0 0 0-6.795 8.562C10.948 8.27 5.808 5.494 2.37 1.275a6.922 6.922 0 0 0-.943 3.505 6.971 6.971 0 0 0 3.101 5.804 6.975 6.975 0 0 1-3.159-.875v.087a6.982 6.982 0 0 0 5.594 6.84c-.584.156-1.2.243-1.838.243-.45 0-.886-.044-1.313-.13a6.978 6.978 0 0 0 6.514 4.845 13.993 13.993 0 0 1-8.661 2.98c-.563 0-1.118-.033-1.664-.095a19.715 19.715 0 0 0 10.69 3.138c12.83 0 19.844-10.627 19.844-19.843l-.023-.903a13.928 13.928 0 0 0 3.488-3.603z" fill="#E91049" fill-rule="nonzero"/></svg>