<?xml version="1.0" encoding="UTF-8"?>
<svg width="34px" height="28px" viewBox="0 0 34 28" version="1.1" xmlns="http://www.w3.org/2000/svg" xmlns:xlink="http://www.w3.org/1999/xlink">
    <!-- Generator: Sketch 48.2 (47327) - http://www.bohemiancoding.com/sketch -->
    <title>twitter-logo-silhouette</title>
    <desc>Created with Sketch.</desc>
    <defs></defs>
    <g id="Footer_Desktop" stroke="none" stroke-width="1" fill="none" fill-rule="evenodd" transform="translate(-1140.000000, -109.000000)">
        <g id="Group-2" transform="translate(1094.000000, 107.000000)" fill="#E91049" fill-rule="nonzero">
            <g id="twitter-logo-silhouette" transform="translate(46.000000, 2.000000)">
                <path d="M33.999,3.26752034 C32.7476459,3.82200494 31.4049609,4.19805005 29.9942224,4.36593428 C31.4346823,3.50334713 32.5373184,2.13516291 33.059915,0.509874725 C31.7087303,1.30868587 30.2172717,1.88872531 28.6280936,2.20316102 C27.3555179,0.845587622 25.5454015,0 23.5376795,0 C19.6858976,0 16.5628177,3.12307991 16.5628177,6.97275075 C16.5628177,7.51873558 16.6244271,8.05199855 16.7434238,8.56192883 C10.9476959,8.2708258 5.80844976,5.4940696 2.36882309,1.27468681 C1.76756201,2.30299158 1.42551596,3.50118052 1.42551596,4.78020055 C1.42551596,7.20007777 2.6577595,9.33524068 4.52737424,10.5844282 C3.38435043,10.546207 2.30932474,10.2317713 1.36818422,9.70911918 L1.36818422,9.79622787 C1.36818422,13.1742451 3.77317296,15.9935002 6.96208438,16.635149 C6.37782283,16.7923669 5.76172884,16.8794756 5.12435765,16.8794756 C4.67398127,16.8794756 4.23843782,16.8348657 3.81139412,16.749868 C4.69942501,19.5224021 7.27440904,21.5385684 10.3252687,21.5938446 C7.93939057,23.4634593 4.93102969,24.5745951 1.66350935,24.5745951 C1.10052498,24.5745951 0.545984833,24.5405961 0,24.4789867 C3.0869698,26.4612094 6.75181244,27.6169551 10.690703,27.6169551 C23.5207911,27.6169551 30.5339296,16.9899725 30.5339296,7.7737285 L30.5105413,6.87080914 C31.8808366,5.8934474 33.0663037,4.66548151 33.999,3.26752034 Z" id="Shape"></path>
            </g>
        </g>
    </g>
</svg>