<svg xmlns="http://www.w3.org/2000/svg" id="Layer_1" viewBox="-178 342 260.8 110">
  <style>
    .st0{fill:#446f74}
  </style>
  <path d="M-168.9 396.7h116v.6h-116z" class="st0" transform="rotate(-108.8 -111 397.2)"/>
  <path d="M-129.1 396.8c-2.7-2.1-4 0-5.7-.1-1.4-.1-2.8-2.4-3.9-1.9-2.1 1.1.9 4.9 2.1 5.7 1.1.7 2.6 1.3 2.9 1.5 1.7.8 2.4 2 2.6 3.9.1.4 0 1.4-.1 1.9-.8 3.3-6.6 6.3-9.9 4a7.6 7.6 0 0 1-3.5-4.9c-.9-4.3-4-7.5-5-11.8l-1.7-7.9-2-7.8c-.5-2.3-1.6-5.6-2.4-7.7-3.2-8.3-4.6-7.7-4.6-7.7s1.2 2.3 5.4 22.6c.2.8 1.7 9.8 2.8 12.7.4 1.1 1.1 3.3 1.6 4.3 1.3 2.9 4.9 7.3 5.1 11.3l.5 5.9c0 .5.3 2.6.6 3.5.9 2.4 7.8 10.2 15.2 10.2v-5.9c-7.3 0-14.3-4.1-14.4-4.5-.1-.2.4-3 .9-4.2 1-2.4 2.8-4.6 6-4.8 3.6-.3 5.7.8 7.6.8l-.1-19.1zm-31.9-21.5c-.3 4.4-7.1 10.5-9.3 14.4a29.5 29.5 0 0 0-2.7 7.1 19 19 0 0 0 1.5 11.7c2.3 5.4-.3 7.4 1.5 6.3 2.2-1.8 1.9-6 1.7-8.6-.1-2.1-.3-4.5.1-7 .6-4.7 3.5-9.8 5.9-13.3 2.9-4.3 1.8-8.6 1.3-10.6m1.4 12.6s.7 3.5-2.4 12.5c-8.1 23.6 7.4 25.9 11.8 31.4 0 0 1.7-2.4-5.3-10.1-2.6-2.8-4.9-9-2.9-17.9 2.9-12.8-1.2-15.9-1.2-15.9m-15.4-15.5c-.4-1.4-.5-2.6-.4-3.8.4-5.5 5.4-7.8 6.7-8.6 0 0 2.3-1.6 2.6-3.1 0 0 2.3 5.8-3 9.2a14.8 14.8 0 0 0-5.9 6.3m12.8-5.4c.3.6 2.4 3.6-6.2 10.7-8.6 7-5.9 12.1-5.9 12.1s-9.2-5.1 1.4-13.8c10.5-8.8 8.4-10.5 8.4-10.5s1.4-.1 2.3 1.5m11.1 2.7c1.5.2 2.4 4.8 5.8 5.8 2.5.7 5.2.3 5.8 1.8-1.2.6-.2 2.6.9 2.3 1-2.6 1.5-13-12.5-9.9zm4.6 2.1c.1-.3.3-.1.7-.3.4-.4.8-1 1.5-1.2.5-.1 1.1-.1 1.5.1.3.1.1.8-.1 1-.5.3-1.8-.2-1.8.8.1 1.7 2.3-.1 3.4 0 .5 4.1-6.2 3-5.2-.4zm60 26.7c0-.3.1-.5.3-.7.2-.2.4-.3.7-.3s.5.1.7.3c.2.2.3.4.3.7 0 .3-.1.5-.3.7a1 1 0 0 1-.7.3 1 1 0 0 1-.7-.3c-.1-.2-.3-.4-.3-.7zm.3 2.7h1.5v9.6h-1.5v-9.6zm6.3 8.4l1.4-.2 1-.5c.3-.2.4-.6.4-1s-.3-.7-.8-1l-1.2-.5a4 4 0 0 1-1.3-.6c-1-.5-1.6-1.3-1.6-2.3 0-.6.2-1.1.5-1.5.6-.7 1.6-1.1 2.9-1.1.7 0 1.4.1 2 .3v1.3h-.1a9 9 0 0 0-2.2-.3c-1.1 0-1.7.4-1.7 1.1 0 .5.3.8.8 1.2l1.4.6 1.6.7c.4.2.7.4.9.8.2.3.3.7.3 1.3 0 1-.4 1.7-1.2 2.2-.8.5-1.7.8-2.7.8s-1.8-.1-2.5-.4v-1.3h.1l2 .4zm23.8-4.9c0-1.6-.7-2.4-2.2-2.4a5 5 0 0 0-2.3.7c.2.5.2 1 .2 1.6v6.1h-1.5v-6c0-1.6-.6-2.4-1.8-2.4a4 4 0 0 0-2.4.9v7.5h-1.5v-9.6h.9l.3.9a5.8 5.8 0 0 1 3-1.1c.9 0 1.6.3 2.2 1 1.2-.7 2.2-1 3-1 1 0 1.9.3 2.6.9.7.6 1 1.5 1 2.8v6.1h-1.5v-6zm12.9 1.2c0 1.4-.4 2.6-1.3 3.5s-2 1.4-3.3 1.4-2.4-.5-3.3-1.4c-.9-1-1.3-2.1-1.3-3.5s.4-2.6 1.3-3.5c.9-1 2-1.4 3.3-1.4s2.5.5 3.3 1.4 1.3 2.2 1.3 3.5zm-7.7 0c0 1.1.3 1.9.8 2.6.6.7 1.3 1 2.3 1s1.7-.3 2.3-1c.5-.7.8-1.5.8-2.6s-.3-2-.8-2.7a2.7 2.7 0 0 0-2.3-1.1c-1 0-1.8.3-2.3 1-.5.9-.8 1.8-.8 2.8zm11.6-8.5v4.4c.8-.6 1.6-.8 2.5-.8s1.7.2 2.4.7 1.2 1 1.5 1.8c.3.7.5 1.6.5 2.5 0 1.5-.4 2.7-1.3 3.7a5 5 0 0 1-3.7 1.4c-1.1 0-2.2-.2-3.4-.7v-12.7l1.5-.3zm1.9 12.2c1.1 0 1.9-.4 2.5-1.1s.9-1.6.9-2.7-.3-2-.8-2.6c-.5-.6-1.3-1-2.3-1s-1.8.3-2.3 1v6c.6.3 1.2.4 2 .4zm7.3-11.1c0-.3.1-.5.3-.7.2-.2.4-.3.7-.3s.5.1.7.3c.2.2.3.4.3.7 0 .3-.1.5-.3.7a1 1 0 0 1-.7.3 1 1 0 0 1-.7-.3 1 1 0 0 1-.3-.7zm.3 2.7h1.5v9.6h-1.5v-9.6zm6.4-3.8v13.4h-1.5v-13.2l1.5-.2zm3.1 1.1c0-.3.1-.5.3-.7.2-.2.4-.3.7-.3s.5.1.7.3c.2.2.3.4.3.7 0 .3-.1.5-.3.7a1 1 0 0 1-.7.3 1 1 0 0 1-.7-.3 1 1 0 0 1-.3-.7zm.3 2.7h1.5v9.6H-20v-9.6zm3.7 0h1.1v-1.7l1.4-.2h.1v2h2.8v1.3h-2.8v4.7c0 .8.2 1.4.5 1.8s.8.6 1.3.6c.6 0 1.2-.2 1.9-.6l.4 1.3c-.9.4-1.8.6-2.6.6s-1.6-.3-2.1-.9c-.6-.6-.9-1.5-.9-2.8v-4.7h-1.1v-1.4zm15.3 5.1h-6.3c.1 1 .4 1.8 1 2.4.6.6 1.3.9 2.3.9s1.8-.2 2.8-.7v1.3c-1 .5-1.9.7-2.9.7-1.5 0-2.6-.5-3.4-1.4a5.2 5.2 0 0 1-1.2-3.6c0-1.5.4-2.7 1.1-3.6.7-.9 1.8-1.4 3.2-1.4 1.4 0 2.4.6 3 1.7.3.6.5 1.4.5 2.4v1.3zm-3.4-4c-.8 0-1.4.2-1.8.7-.5.5-.8 1.1-.9 1.9h4.7c0-1.3-.4-2.1-1-2.5l-1-.1zm5.7-3.8c0-.3.1-.5.3-.7.2-.2.4-.3.7-.3s.5.1.7.3c.2.2.3.4.3.7 0 .3-.1.5-.3.7a1 1 0 0 1-.7.3 1 1 0 0 1-.7-.3 1 1 0 0 1-.3-.7zm.3 2.7h1.5v9.6H1.6v-9.6zm3.7 0h1.1v-1.7l1.4-.2h.1v2h2.8v1.3H7.9v4.7c0 .8.2 1.4.5 1.8s.8.6 1.3.6c.6 0 1.2-.2 1.9-.6l.4 1.3c-.9.4-1.8.6-2.6.6s-1.6-.3-2.1-.9c-.6-.6-.9-1.5-.9-2.8v-4.7H5.3v-1.4zm17.5 9.7c-1.2 0-2.2-.3-2.9-1-.8-.6-1.1-1.5-1.1-2.6 0-.7.2-1.3.5-1.9.4-.5.9-1 1.7-1.5-.8-.8-1.1-1.6-1.1-2.6s.3-1.7.9-2.3c.6-.5 1.3-.8 2.2-.8s1.7.2 2.2.7c.6.5.9 1.1.9 1.9 0 .8-.3 1.5-.9 2.1-.4.4-1 .7-1.8 1.1l3.1 3c.4-.8.8-1.9 1-3.2h.1l1.4.5a9.5 9.5 0 0 1-1.4 3.7l1.9 1.7-1.1 1-1.7-1.6a4.8 4.8 0 0 1-3.9 1.8zm-2.6-3.5c0 .7.2 1.2.7 1.6.5.4 1.1.6 1.9.6 1.1 0 2-.4 2.8-1.2l-3.7-3.5c-1.1.7-1.7 1.5-1.7 2.5zm4.3-6.3c0-.9-.5-1.3-1.5-1.3-.6 0-1 .1-1.3.4-.3.3-.4.6-.4 1.1 0 .8.3 1.5 1 2.1h.1c.6-.2 1.1-.5 1.5-.8.4-.5.6-.9.6-1.5zM-78 425.9c0 1.4-.4 2.6-1.3 3.5s-2 1.4-3.3 1.4c-1.3 0-2.4-.5-3.3-1.4-.9-1-1.3-2.1-1.3-3.5s.4-2.6 1.3-3.5c.9-1 2-1.4 3.3-1.4s2.5.5 3.3 1.4c.9.9 1.3 2.1 1.3 3.5zm-7.7 0c0 1.1.3 1.9.8 2.6.6.7 1.3 1 2.3 1s1.7-.3 2.3-1c.5-.7.8-1.5.8-2.6s-.3-2-.8-2.7a2.7 2.7 0 0 0-2.3-1.1c-1 0-1.8.3-2.3 1-.5.9-.8 1.7-.8 2.8zm10-4.8h1l.3.8c.8-.7 1.8-1 2.8-1a4 4 0 0 1 3.1 1.4c.8.9 1.2 2.1 1.2 3.5s-.4 2.6-1.3 3.6-2.1 1.4-3.8 1.4l-1.9-.2v4.2h-1.5v-13.7zm3.5 8.5c1 0 1.9-.3 2.5-1 .6-.7 1-1.6 1-2.7s-.3-2-.8-2.6-1.3-1-2.3-1-1.8.3-2.3 1v5.9c.5.2 1.2.4 1.9.4zm14.2-3.3h-6.3c.1 1 .4 1.8 1 2.4s1.3.9 2.3.9a6 6 0 0 0 2.8-.7v1.3c-1 .5-1.9.7-2.9.7-1.5 0-2.6-.5-3.4-1.4a5.2 5.2 0 0 1-1.2-3.6c0-1.5.4-2.7 1.1-3.6.7-.9 1.8-1.4 3.2-1.4s2.4.6 3 1.7c.3.6.5 1.4.5 2.4v1.3zm-3.4-4c-.8 0-1.4.2-1.8.7s-.8 1.1-.9 1.9h4.7c0-1.3-.4-2.1-1-2.5l-1-.1zm9.8 0a6 6 0 0 0-2.7.9v7.5h-1.5v-9.6h1l.3.9c1.2-.7 2.2-1.1 3.2-1.1s1.8.3 2.4.9c.7.6 1 1.5 1 2.8v6.1h-1.5v-6c0-1.6-.7-2.4-2.2-2.4zm8.2-5v4.4c.8-.6 1.6-.8 2.5-.8s1.7.2 2.4.7 1.2 1 1.5 1.8c.3.7.5 1.6.5 2.5 0 1.5-.4 2.7-1.3 3.7a5 5 0 0 1-3.7 1.4c-1.1 0-2.2-.2-3.4-.7v-12.7l1.5-.3zm2 12.3c1.1 0 1.9-.4 2.5-1.1s.9-1.6.9-2.7-.3-2-.8-2.6c-.5-.6-1.3-1-2.3-1s-1.8.3-2.3 1v6c.6.3 1.2.4 2 .4zm9.8 1.3c-.9 0-1.6-.2-2.1-.6-.8-.5-1.1-1.3-1.1-2.3 0-1 .3-1.8 1-2.2.7-.4 1.6-.7 2.9-.7l2 .1V424a2 2 0 0 0-.5-1.4c-.3-.3-.8-.4-1.4-.4a6 6 0 0 0-3 .7l-.4-1.2a10 10 0 0 1 3.7-.8c2.1 0 3.1 1 3.1 3.1v3.1c0 1 .2 1.7.7 2.1l.7.4-.9 1.3c-.7-.2-1.2-.7-1.5-1.3-.9.8-2 1.3-3.2 1.3zm-.2-1.3c1.8 0 2.7-.8 2.7-2.3v-.8h-1.3c-1.5 0-2.4.2-2.8.6-.2.2-.3.5-.3.9s.2.8.5 1.1c.4.3.8.5 1.2.5zm7.6-8.5h1l.3 1.1c.8-.9 1.6-1.3 2.5-1.3a5 5 0 0 1 1.7.3l-.5 1.3c-.4-.2-.9-.3-1.4-.3-.8 0-1.5.4-2.1 1.3v7.2h-1.5v-9.6zm13.4 5.2h-6.3c.1 1 .4 1.8 1 2.4.6.6 1.3.9 2.3.9s1.8-.2 2.8-.7v1.3c-1 .5-1.9.7-2.9.7-1.5 0-2.6-.5-3.4-1.4a5.2 5.2 0 0 1-1.2-3.6c0-1.5.4-2.7 1.1-3.6.7-.9 1.8-1.4 3.2-1.4 1.4 0 2.4.6 3 1.7.3.6.5 1.4.5 2.4v1.3zm-3.5-4c-.8 0-1.4.2-1.8.7-.5.5-.8 1.1-.9 1.9h4.7c0-1.3-.4-2.1-1-2.5l-1-.1zm24.8-1.2l-3.2 9.6H5.5l-2.2-7.3-2.3 7.3H-.9l-3.2-9.6h1.5l2.6 8 2.5-8h1.3l2.5 8.1 2.7-8.1h1.5zm8.9 5.2h-6.3c.1 1 .4 1.8 1 2.4a3 3 0 0 0 2.3.9 6 6 0 0 0 2.8-.7v1.3c-1 .5-1.9.7-2.9.7-1.5 0-2.6-.5-3.4-1.4a5.2 5.2 0 0 1-1.2-3.6c0-1.5.4-2.7 1.1-3.6.7-.9 1.8-1.4 3.2-1.4 1.4 0 2.4.6 3 1.7.3.6.5 1.4.5 2.4v1.3zm-3.5-4c-.8 0-1.4.2-1.8.7-.5.5-.8 1.1-.9 1.9h4.7c0-1.3-.4-2.1-1-2.5l-1-.1zm5.7-1.2h1l.3 1.1c.8-.9 1.6-1.3 2.5-1.3a5 5 0 0 1 1.7.3l-.5 1.3c-.4-.2-.9-.3-1.4-.3-.8 0-1.5.4-2.1 1.3v7.2h-1.5v-9.6zm8.8 9.6h-1.5v-13.1l1.4-.2h.1v8.3l4-4.5h1.9l-4.1 4.6c.1.2.3.6.9 1.2l1.7 1.7c.6.5 1.2.9 1.7 1l-.6 1.3c-.5 0-1-.3-1.6-.7a17 17 0 0 1-3.6-4l-.2-.3v4.7zm14.3-4.4h-6.3c.1 1 .4 1.8 1 2.4.6.6 1.3.9 2.3.9s1.8-.2 2.8-.7v1.3c-1 .5-1.9.7-2.9.7-1.5 0-2.6-.5-3.4-1.4a5.2 5.2 0 0 1-1.2-3.6c0-1.5.4-2.7 1.1-3.6.7-.9 1.8-1.4 3.2-1.4 1.4 0 2.4.6 3 1.7.3.6.5 1.4.5 2.4v1.3zm-3.5-4c-.8 0-1.4.2-1.8.7-.5.5-.8 1.1-.9 1.9h4.7c0-1.3-.4-2.1-1-2.5l-1-.1zm9.9 0a6 6 0 0 0-2.7.9v7.5H47v-9.6h1l.3.9c1.2-.7 2.2-1.1 3.2-1.1s1.8.3 2.4.9c.7.6 1 1.5 1 2.8v6.1h-1.5v-6c-.1-1.6-.8-2.4-2.3-2.4zm-122.7-57.4l-8 23.3h-4.8l-8-23.3h4.3l6.1 17.7 6.1-17.7h4.3zm6.9-2.3v25.2h-4.1v-24.9l3.6-.3h.5zm17.4 19.4c0 1.5.9 2.3 2.7 2.7l-1.8 3.4c-1.6 0-2.9-.6-4.1-1.9-.9.7-1.7 1.1-2.3 1.4-.7.3-1.7.5-3 .5s-2.5-.4-3.5-1.1c-1.4-1-2.1-2.5-2.1-4.7a5 5 0 0 1 1.4-3.8c1-.8 2.6-1.3 4.9-1.3l3.7.1v-.9c0-2.2-1.2-3.3-3.5-3.3-1.5 0-3.1.4-4.8 1.2l-1-3.6c2.1-1 4.3-1.6 6.4-1.6s3.8.5 5.1 1.4c1.3 1 1.9 2.5 1.9 4.6v6.9zm-4.1-1.5h-1.3l-3.1.2c-1 .3-1.6.9-1.6 1.8 0 .7.2 1.3.7 1.7.5.4 1.1.6 1.9.6.8 0 1.5-.2 2.1-.6.9-.5 1.3-1.4 1.3-2.7v-1zm22 1.5c0 1.5.9 2.3 2.7 2.7l-1.8 3.4c-1.6 0-2.9-.6-4.1-1.9-.9.7-1.7 1.1-2.3 1.4-.7.3-1.7.5-3 .5a6 6 0 0 1-3.5-1.1c-1.4-1-2.1-2.5-2.1-4.7a5 5 0 0 1 1.4-3.8c1-.8 2.6-1.3 4.9-1.3l3.7.1v-.9c0-2.2-1.2-3.3-3.5-3.3-1.5 0-3.1.4-4.8 1.2l-1-3.6c2.1-1 4.3-1.6 6.4-1.6 2.1 0 3.8.5 5.1 1.4 1.3 1 1.9 2.5 1.9 4.6v6.9zm-4-1.5h-1.3l-3.1.2c-1 .3-1.6.9-1.6 1.8 0 .7.2 1.3.7 1.7s1.1.6 1.9.6c.8 0 1.5-.2 2.1-.6.9-.5 1.3-1.4 1.3-2.7v-1zm9.1-10.8h3.4l.4 1.4a9.8 9.8 0 0 1 5.6-1.8c2 0 3.6.5 4.8 1.6a6.2 6.2 0 0 1 1.9 4.8v12h-4.1V377c0-1.3-.4-2.2-1.1-2.8-.8-.6-1.8-.9-3.1-.9s-2.6.4-3.8 1.1v13.4h-4.1v-18.1zm35.5 18.1H8.1l-.7-1.4a8 8 0 0 1-4.9 1.7c-2.4 0-4.3-.8-5.6-2.5s-2-3.7-2-6.1c0-3.3.9-5.8 2.6-7.5 1.7-1.7 4-2.6 6.9-2.6l2.7.2V363l3.4-.3h.6v25.1zm-6.9-14.7c-1.6 0-2.9.5-3.8 1.4-.9 1-1.4 2.3-1.4 3.9s.4 3 1.2 4.1c.8 1.1 1.8 1.6 3.2 1.6s2.6-.4 3.8-1.1v-9.6l-3-.3zm19.7 15c-2.6 0-4.8-.8-6.6-2.4-1.8-1.6-2.7-3.9-2.7-6.8s.8-5.2 2.4-6.9a7.5 7.5 0 0 1 5.7-2.5c.9 0 1.8.1 2.7.4a6 6 0 0 1 3.1 2.3c1 1.4 1.5 3.2 1.5 5.5v2.7h-11c.3 1.4 1 2.4 1.9 3s2.2 1 3.6 1 2.9-.4 4.3-1.2l.2.1v4a16 16 0 0 1-5.1.8zm1.2-13.9c-.6-.7-1.4-1-2.3-1-.9 0-1.7.3-2.4 1-.7.6-1.2 1.6-1.4 2.8h7.3c-.2-1.2-.5-2.1-1.2-2.8zm15.6-.9c-1.2 0-2.3.4-3.5 1.3v13.2h-4.1v-18.1h3.4l.4 1.5c1.4-1.2 3-1.8 4.5-1.8s2.8.2 3.7.7l-1.3 4.1c-.9-.6-1.9-.9-3.1-.9zm14.9 14.8c-2.6 0-4.8-.8-6.6-2.4-1.8-1.6-2.7-3.9-2.7-6.8s.8-5.2 2.4-6.9a7.5 7.5 0 0 1 5.7-2.5c.9 0 1.8.1 2.7.4a6 6 0 0 1 3.1 2.3c1 1.4 1.5 3.2 1.5 5.5v2.7h-11c.3 1.4 1 2.4 1.9 3s2.2 1 3.6 1 2.9-.4 4.3-1.2l.2.1v4a16 16 0 0 1-5.1.8zm1.2-13.9c-.6-.7-1.4-1-2.3-1-.9 0-1.7.3-2.4 1-.7.6-1.2 1.6-1.4 2.8H58a4.8 4.8 0 0 0-1.1-2.8zm8-4.5h3.4l.4 1.4a9.8 9.8 0 0 1 5.6-1.8c2 0 3.6.5 4.8 1.6a6.2 6.2 0 0 1 1.9 4.8v12h-4V377c0-1.3-.4-2.2-1.1-2.8-.8-.6-1.8-.9-3.1-.9s-2.6.4-3.8 1.1v13.4h-4.1v-18.1z" class="st0"/>
</svg>
